<svg width="309" height="383" viewBox="0 0 309 383" fill="none" xmlns="http://www.w3.org/2000/svg">
<path d="M154.63 179.197C147.909 179.197 142.462 184.644 142.462 191.365C142.462 198.086 147.909 203.533 154.63 203.533C161.351 203.533 166.798 198.081 166.798 191.365C166.798 184.649 161.351 179.197 154.63 179.197ZM154.63 198.056C150.931 198.056 147.939 195.054 147.939 191.365C147.939 187.676 150.931 184.674 154.63 184.674C158.329 184.674 161.321 187.666 161.321 191.365C161.321 195.064 158.319 198.056 154.63 198.056Z" fill="#6752BC" fill-opacity="0.58"/>
<path d="M154.63 207.695C163.636 207.695 170.96 200.371 170.96 191.365C170.96 182.359 163.636 175.035 154.63 175.035C145.624 175.035 138.3 182.359 138.3 191.365C138.3 200.371 145.624 207.695 154.63 207.695ZM154.63 177.022C162.536 177.022 168.969 183.454 168.969 191.36C168.969 199.266 162.536 205.699 154.63 205.699C146.724 205.699 140.291 199.266 140.291 191.36C140.291 183.454 146.724 177.022 154.63 177.022Z" fill="#6752BC" fill-opacity="0.58"/>
<path d="M154.63 317.539C145.763 317.539 138.549 324.753 138.549 333.62C138.549 342.487 145.763 349.702 154.63 349.702C163.497 349.702 170.711 342.487 170.711 333.62C170.711 324.753 163.497 317.539 154.63 317.539ZM154.63 348.208C146.584 348.208 140.042 341.666 140.042 333.62C140.042 325.575 146.584 319.033 154.63 319.033C162.676 319.033 169.217 325.575 169.217 333.62C169.217 341.666 162.676 348.208 154.63 348.208Z" fill="#6752BC" fill-opacity="0.58"/>
<path d="M154.63 65.1856C163.497 65.1856 170.711 57.9715 170.711 49.1045C170.711 40.2375 163.497 33.0234 154.63 33.0234C145.763 33.0234 138.549 40.2375 138.549 49.1045C138.549 57.9715 145.763 65.1856 154.63 65.1856ZM154.63 34.517C162.676 34.517 169.217 41.059 169.217 49.1045C169.217 57.15 162.676 63.692 154.63 63.692C146.584 63.692 140.042 57.15 140.042 49.1045C140.042 41.059 146.584 34.517 154.63 34.517Z" fill="#6752BC" fill-opacity="0.58"/>
<path d="M283.433 227.978C279.087 227.978 274.994 229.078 271.415 231.015L261.069 213.102V195.049C262.846 194.701 264.186 193.137 264.186 191.26C264.186 189.383 262.846 187.82 261.069 187.472V169.419L271.415 151.506C274.994 153.442 279.087 154.543 283.433 154.543C297.408 154.543 308.779 143.171 308.779 129.196C308.779 115.221 297.408 103.85 283.433 103.85C269.458 103.85 258.087 115.221 258.087 129.196C258.087 138.292 262.906 146.283 270.125 150.754L259.894 168.473H237.679C234.896 158.332 230.311 148.892 224.053 140.383L280.72 42.229H203.242C199.861 18.1074 179.08 0 154.63 0C130.18 0 109.399 18.1074 106.013 42.2241H28.5353L85.2025 140.378C78.9443 148.887 74.359 158.332 71.5759 168.468H49.3611L39.1299 150.749C46.349 146.278 51.1684 138.287 51.1684 129.191C51.1684 115.216 39.7971 103.845 25.822 103.845C11.8469 103.845 0.475586 115.216 0.475586 129.191C0.475586 143.167 11.8469 154.538 25.822 154.538C30.1684 154.538 34.2608 153.438 37.8405 151.501L48.1861 169.414V187.467C46.4088 187.815 45.0695 189.378 45.0695 191.255C45.0695 193.132 46.4088 194.696 48.1861 195.044V213.097L37.8405 231.01C34.2608 229.073 30.1684 227.973 25.822 227.973C11.8469 227.973 0.475586 239.344 0.475586 253.319C0.475586 267.295 11.8469 278.666 25.822 278.666C39.7971 278.666 51.1684 267.295 51.1684 253.319C51.1684 244.223 46.349 236.233 39.1299 231.762L49.3611 214.043H71.5162C74.2843 224.224 78.8647 233.709 85.1378 242.247L29.1826 339.167L28.5353 340.287H105.988C109.274 364.523 130.065 382.72 154.63 382.72C179.195 382.72 199.981 364.523 203.272 340.287H280.725L224.122 242.247C230.39 233.704 234.976 224.224 237.744 214.043H259.899L270.13 231.762C262.911 236.233 258.092 244.223 258.092 253.319C258.092 267.295 269.463 278.666 283.438 278.666C297.413 278.666 308.784 267.295 308.784 253.319C308.784 239.344 297.413 227.973 283.438 227.973L283.433 227.978ZM263.563 129.191C263.563 118.233 272.475 109.322 283.433 109.322C294.391 109.322 303.303 118.233 303.303 129.191C303.303 140.149 294.391 149.061 283.433 149.061C272.475 149.061 263.563 140.149 263.563 129.191ZM5.95212 129.191C5.95212 118.233 14.8639 109.322 25.822 109.322C36.78 109.322 45.6918 118.233 45.6918 129.191C45.6918 140.149 36.78 149.061 25.822 149.061C14.8639 149.061 5.95212 140.149 5.95212 129.191ZM45.6918 253.324C45.6918 264.283 36.78 273.194 25.822 273.194C14.8639 273.194 5.95212 264.283 5.95212 253.324C5.95212 242.366 14.8639 233.455 25.822 233.455C36.78 233.455 45.6918 242.366 45.6918 253.324ZM236.39 169.409L236.539 169.962H259.58V187.467C258.047 187.765 256.837 188.975 256.538 190.509H223.649C223.604 186.67 223.236 182.851 222.559 179.098C222.678 179.043 222.798 178.983 222.912 178.918C224.76 177.853 225.392 175.488 224.326 173.641C223.58 172.351 222.2 171.654 220.806 171.714C219.283 166.576 217.167 161.617 214.484 156.952L223.241 141.787C229.305 150.162 233.731 159.447 236.395 169.404L236.39 169.409ZM195.853 193.297L217.321 205.694C216.734 207.406 217.421 209.348 219.044 210.289C219.163 210.359 219.283 210.418 219.402 210.473C218.003 215.223 216.082 219.818 213.667 224.159L195.848 193.302L195.853 193.297ZM188.331 193.605L183.73 185.635L154.63 135.236L128.517 182.149L133.117 190.12L154.63 151.167L179.13 193.605L183.73 201.571L185.363 204.404L154.63 257.636L123.897 204.404L125.53 201.571L120.929 193.605L119.296 196.433L116.309 191.255L119.237 186.187L120.929 189.125L125.53 197.09L154.63 247.489L180.743 200.576L176.143 192.61L154.63 231.558L130.13 189.125L125.53 181.154L123.837 178.221L154.63 124.885L185.423 178.221L183.73 181.154L188.331 189.12L190.023 186.187L192.951 191.26L189.964 196.438L188.331 193.61V193.605ZM139.465 363.383L139.679 378.822C135.064 377.293 130.747 375.068 126.864 372.28L139.465 363.383ZM149.407 366.609L154.376 381.226C149.442 381.201 144.668 380.41 140.167 378.976L149.407 366.609ZM159.858 366.609L169.098 378.976C164.597 380.415 159.823 381.201 154.884 381.226L159.858 366.609ZM169.795 363.383L182.396 372.28C178.513 375.073 174.201 377.293 169.586 378.822L169.795 363.383ZM187.056 325.655H177.721C178.587 328.154 179.055 330.832 179.055 333.62C179.055 347.088 168.097 358.046 154.63 358.046C141.163 358.046 130.205 347.088 130.205 333.62C130.205 330.832 130.673 328.154 131.539 325.655H53.8917L87.4031 267.613H221.862L255.373 325.655H187.061H187.056ZM91.3362 260.792H217.919L219.268 263.132H89.987L91.3362 260.792ZM92.1975 259.299L123.03 205.893L153.863 259.299H92.1975ZM155.392 259.299L186.225 205.893L217.058 259.299H155.392ZM95.588 224.159C93.1734 219.818 91.2516 215.223 89.8526 210.473C89.9721 210.418 90.0966 210.359 90.2111 210.289C91.8391 209.348 92.5212 207.406 91.9337 205.694L113.402 193.297L95.583 224.154L95.588 224.159ZM113.402 189.219L91.9337 176.827C92.5212 175.115 91.8341 173.173 90.2111 172.232C90.1115 172.172 90.0069 172.122 89.9024 172.073C91.3064 167.348 93.2281 162.782 95.6428 158.461L113.402 189.219ZM91.1869 178.117L112.655 190.514H87.1044C87.1492 186.785 87.5027 183.08 88.1549 179.441C89.295 179.476 90.4152 179.003 91.1869 178.122V178.117ZM112.655 192.007L91.1869 204.404C90.4052 203.508 89.2701 203.04 88.12 203.085C87.4778 199.44 87.1392 195.736 87.0994 192.007H112.655ZM169.795 19.3421L169.586 3.90825C174.196 5.4367 178.503 7.66217 182.386 10.4552L169.795 19.3471V19.3421ZM159.858 16.1159L154.884 1.49858C159.818 1.52347 164.592 2.31508 169.093 3.75391L159.858 16.1159ZM149.407 16.1159L140.167 3.75391C144.668 2.31508 149.437 1.52347 154.371 1.49858L149.402 16.1159H149.407ZM139.465 19.3421L126.874 10.4502C130.757 7.65719 135.069 5.4367 139.679 3.90327L139.465 19.3371V19.3421ZM122.204 57.0704H131.539C130.673 54.5712 130.205 51.8926 130.205 49.1046C130.205 35.6373 141.163 24.6792 154.63 24.6792C168.097 24.6792 179.055 35.6373 179.055 49.1046C179.055 51.8926 178.587 54.5712 177.721 57.0704H255.368L222.32 114.31H86.9351L53.8867 57.0704H122.199H122.204ZM217.919 121.933H154.645L154.625 121.898L154.605 121.933H91.3313L89.519 118.791H219.731L217.919 121.933ZM217.058 123.426L186.284 176.728L155.511 123.426H217.058ZM153.749 123.426L122.976 176.728L92.2025 123.426H153.749ZM213.612 158.461C216.027 162.782 217.949 167.348 219.353 172.073C219.248 172.122 219.144 172.172 219.044 172.232C217.416 173.173 216.734 175.115 217.321 176.827L195.853 189.219L213.612 158.461ZM218.068 204.399L196.6 192.002H222.156C222.121 195.731 221.777 199.435 221.135 203.08C219.985 203.035 218.85 203.503 218.068 204.399ZM196.6 190.514L218.068 178.117C218.84 179.003 219.96 179.471 221.1 179.436C221.752 183.08 222.106 186.785 222.151 190.509H196.6V190.514ZM202.604 42.9709V43.7177H278.136L193.812 189.767L190.885 184.694L269.169 49.1046H202.988L187.619 43.882L199.996 34.6266C200.862 37.335 201.494 40.1579 201.863 43.0655L202.604 42.9709ZM184.392 33.9396L193.294 21.3336C196.082 25.202 198.308 29.5135 199.841 34.1487L184.392 33.9396ZM192.986 20.9204L178.244 25.4858L182.809 10.7539C186.688 13.6067 190.118 17.032 192.986 20.9204ZM126.446 10.7539L131.011 25.4858L116.269 20.9204C119.132 17.037 122.567 13.6067 126.446 10.7539ZM124.868 33.9396L109.419 34.1487C110.952 29.5086 113.178 25.197 115.966 21.3336L124.868 33.9396ZM106.656 43.7177V42.9709L107.397 43.0655C107.766 40.1579 108.398 37.34 109.264 34.6266L121.641 43.882L106.272 49.1046H40.0908L118.37 184.694L115.443 189.762L31.1193 43.7177H106.651H106.656ZM72.721 169.962L72.8704 169.409C75.534 159.452 79.96 150.167 86.024 141.792L94.7815 156.957C92.093 161.622 89.9771 166.576 88.4586 171.714C87.0645 171.654 85.6855 172.346 84.9387 173.641C83.8732 175.488 84.5055 177.853 86.3526 178.918C86.4671 178.983 86.5866 179.048 86.7061 179.098C86.029 182.851 85.6655 186.665 85.6158 190.509H52.7267C52.428 188.975 51.2182 187.765 49.6797 187.467V169.962H72.721ZM72.8156 213.112L72.6662 212.554H49.6797V195.049C51.2132 194.75 52.423 193.541 52.7267 192.007H85.6158C85.6506 195.851 86.0091 199.674 86.6712 203.433C86.5617 203.483 86.4572 203.538 86.3526 203.598C84.5055 204.663 83.8732 207.028 84.9387 208.875C85.6755 210.149 87.0247 210.846 88.3988 210.807C89.9123 215.98 92.0283 220.968 94.7217 225.663L85.9593 240.838C79.8853 232.429 75.4643 223.109 72.8156 213.112ZM106.636 339.545V338.798H31.1193L115.443 192.754L118.43 197.932L40.0858 333.625H106.267L121.636 338.848L109.254 348.103C108.373 345.33 107.736 342.443 107.373 339.46L106.631 339.55L106.636 339.545ZM124.868 348.785L115.961 361.406C113.173 357.538 110.957 353.221 109.424 348.576L124.868 348.79V348.785ZM116.259 361.81L131.006 357.239L126.436 371.986C122.557 369.133 119.122 365.703 116.254 361.81H116.259ZM182.814 371.986L178.244 357.239L192.991 361.81C190.128 365.698 186.693 369.133 182.809 371.986H182.814ZM184.392 348.785L199.836 348.571C198.303 353.216 196.087 357.533 193.299 361.401L184.392 348.78V348.785ZM202.624 338.798V339.545L201.883 339.455C201.519 342.438 200.882 345.325 200.001 348.098L187.619 338.843L202.988 333.62H269.169L190.825 197.927L193.812 192.749L278.136 338.793H202.624V338.798ZM236.589 212.554L236.439 213.112C233.791 223.109 229.37 232.429 223.296 240.838L214.533 225.663C217.227 220.968 219.343 215.98 220.856 210.807C222.23 210.846 223.585 210.149 224.316 208.875C225.382 207.028 224.75 204.663 222.902 203.598C222.798 203.538 222.688 203.483 222.584 203.433C223.251 199.674 223.604 195.851 223.639 192.007H256.528C256.827 193.541 258.037 194.75 259.57 195.049V212.554H236.584H236.589ZM283.433 273.194C272.475 273.194 263.563 264.283 263.563 253.324C263.563 242.366 272.475 233.455 283.433 233.455C294.391 233.455 303.303 242.366 303.303 253.324C303.303 264.283 294.391 273.194 283.433 273.194Z" fill="#6752BC" fill-opacity="0.58"/>
<path d="M272.604 245.443C272.604 246.404 273.386 247.186 274.347 247.186H280.615L272.789 262.834C272.52 263.371 272.55 264.014 272.863 264.531C273.182 265.044 273.74 265.358 274.347 265.358H294.262V261.873H277.165L284.508 247.186H294.262V243.701H274.347C273.386 243.701 272.604 244.482 272.604 245.443Z" fill="#6752BC" fill-opacity="0.58"/>
<path d="M33.0112 121.843L34.7487 121.987L35.0375 118.512L33.2999 118.368C32.822 118.328 21.5652 117.457 16.1534 122.435C14.2217 124.213 13.2409 126.483 13.2409 129.186V130.929H13.3952C13.7338 132.876 14.6498 134.558 16.1534 135.937C20.1015 139.572 27.1513 140.09 30.8703 140.09C32.2494 140.09 33.1705 140.02 33.2999 140.005L35.0375 139.861L34.7487 136.386L33.0112 136.53C30.1883 136.764 22.083 136.654 18.5133 133.368C17.7515 132.666 17.2387 131.86 16.9649 130.924H34.9031V127.439H16.9699C17.2437 126.508 17.7565 125.696 18.5133 124.994C22.068 121.718 30.1883 121.599 33.0161 121.828L33.0112 121.843Z" fill="#6752BC" fill-opacity="0.58"/>
<path d="M272.604 140.02H292.519C293.226 140.02 293.858 139.597 294.127 138.945C294.396 138.292 294.247 137.546 293.749 137.048L285.897 129.196L294.984 120.11L292.519 117.646L283.433 126.732L274.347 117.646L271.883 120.11L288.312 136.54H272.604V140.025V140.02Z" fill="#6752BC" fill-opacity="0.58"/>
<path d="M14.9934 244.238V262.411C14.9934 263.371 15.775 264.153 16.7359 264.153H30.3675C33.8326 264.153 36.6506 261.335 36.6506 257.865C36.6506 254.395 33.8326 251.577 30.3675 251.577H18.4784V245.976H36.6506V242.491H16.7359C15.775 242.491 14.9934 243.273 14.9934 244.233V244.238ZM30.3675 255.067C31.9109 255.067 33.1655 256.322 33.1655 257.87C33.1655 259.418 31.9109 260.673 30.3675 260.673H18.4784V255.072H30.3675V255.067Z" fill="#6752BC" fill-opacity="0.58"/>
<path d="M77.1371 75.4218L78.0033 76.9154L81.573 74.8542V78.9766H83.3006V74.8542L86.8703 76.9154L87.7366 75.4218L84.1669 73.3557L87.7366 71.2945L86.8703 69.8009L83.3006 71.8621V67.7347H81.573V71.8621L78.0033 69.8009L77.1371 71.2945L80.7068 73.3557L77.1371 75.4218Z" fill="#6752BC" fill-opacity="0.58"/>
<path d="M107.98 76.9154L111.55 74.8542V78.9766H113.277V74.8542L116.852 76.9154L117.713 75.4218L114.143 73.3557L117.713 71.2945L116.852 69.8009L113.277 71.8621V67.7347H111.55V71.8621L107.98 69.8009L107.114 71.2945L110.683 73.3557L107.114 75.4218L107.98 76.9154Z" fill="#6752BC" fill-opacity="0.58"/>
<path d="M92.8099 92.7078L96.3796 90.6466V94.7689H98.1072V90.6466L101.682 92.7078L102.543 91.2142L98.9735 89.148L102.543 87.0868L101.682 85.5932L98.1072 87.6544V83.5271H96.3796V87.6544L92.8099 85.5932L91.9436 87.0868L95.5133 89.148L91.9436 91.2142L92.8099 92.7078Z" fill="#6752BC" fill-opacity="0.58"/>
<path d="M192.408 76.9154L195.978 74.8542V78.9766H197.705V74.8542L201.28 76.9154L202.141 75.4218L198.572 73.3557L202.141 71.2945L201.28 69.8009L197.705 71.8621V67.7347H195.978V71.8621L192.408 69.8009L191.542 71.2945L195.112 73.3557L191.542 75.4218L192.408 76.9154Z" fill="#6752BC" fill-opacity="0.58"/>
<path d="M222.385 76.9154L225.954 74.8542V78.9766H227.687V74.8542L231.257 76.9154L232.123 75.4218L228.548 73.3557L232.123 71.2945L231.257 69.8009L227.687 71.8621V67.7347H225.954V71.8621L222.385 69.8009L221.518 71.2945L225.093 73.3557L221.518 75.4218L222.385 76.9154Z" fill="#6752BC" fill-opacity="0.58"/>
<path d="M207.215 92.7078L210.784 90.6466V94.7689H212.517V90.6466L216.087 92.7078L216.953 91.2142L213.378 89.148L216.953 87.0868L216.087 85.5932L212.517 87.6544V83.5271H210.784V87.6544L207.215 85.5932L206.348 87.0868L209.923 89.148L206.348 91.2142L207.215 92.7078Z" fill="#6752BC" fill-opacity="0.58"/>
<path d="M232.123 307.303L231.257 305.81L227.687 307.871V303.748H225.954V307.871L222.385 305.81L221.518 307.303L225.093 309.369L221.518 311.431L222.385 312.924L225.954 310.863V314.99H227.687V310.863L231.257 312.924L232.123 311.431L228.548 309.369L232.123 307.303Z" fill="#6752BC" fill-opacity="0.58"/>
<path d="M201.28 305.81L197.705 307.871V303.748H195.978V307.871L192.408 305.81L191.542 307.303L195.112 309.369L191.542 311.431L192.408 312.924L195.978 310.863V314.99H197.705V310.863L201.28 312.924L202.141 311.431L198.572 309.369L202.141 307.303L201.28 305.81Z" fill="#6752BC" fill-opacity="0.58"/>
<path d="M216.445 290.017L212.875 292.078V287.951H211.148V292.078L207.578 290.017L206.712 291.511L210.282 293.572L206.712 295.638L207.578 297.132L211.148 295.071V299.198H212.875V295.071L216.445 297.132L217.311 295.638L213.742 293.572L217.311 291.511L216.445 290.017Z" fill="#6752BC" fill-opacity="0.58"/>
<path d="M116.852 305.81L113.277 307.871V303.748H111.55V307.871L107.98 305.81L107.114 307.303L110.683 309.369L107.114 311.431L107.98 312.924L111.55 310.863V314.99H113.277V310.863L116.852 312.924L117.713 311.431L114.143 309.369L117.713 307.303L116.852 305.81Z" fill="#6752BC" fill-opacity="0.58"/>
<path d="M86.8703 305.81L83.3006 307.871V303.748H81.573V307.871L78.0033 305.81L77.1371 307.303L80.7068 309.369L77.1371 311.431L78.0033 312.924L81.573 310.863V314.99H83.3006V310.863L86.8703 312.924L87.7366 311.431L84.1669 309.369L87.7366 307.303L86.8703 305.81Z" fill="#6752BC" fill-opacity="0.58"/>
<path d="M102.04 290.017L98.4706 292.078V287.951H96.743V292.078L93.1683 290.017L92.307 291.511L95.8767 293.572L92.307 295.638L93.1683 297.132L96.743 295.071V299.198H98.4706V295.071L102.04 297.132L102.907 295.638L99.3369 293.572L102.907 291.511L102.04 290.017Z" fill="#6752BC" fill-opacity="0.58"/>
</svg>
