<svg width="45" height="43" viewBox="0 0 45 43" fill="none" xmlns="http://www.w3.org/2000/svg">
<g id="Icon_Element">
<path id="Vector" d="M43.7998 19.6332L40.6813 16.3089C40.1935 15.7952 39.9695 15.0956 40.0594 14.3975L40.631 9.87367C40.7849 8.63448 39.9573 7.49285 38.7318 7.25507L34.2522 6.40151C33.5586 6.27347 32.9627 5.83755 32.6228 5.22177L30.4279 1.22375C29.8243 0.132413 28.483 -0.303513 27.3551 0.222341L23.229 2.16724C22.5873 2.46751 21.8557 2.46751 21.214 2.16724L17.088 0.222341C15.9585 -0.303513 14.6172 0.132413 14.0136 1.22375L11.8203 5.22177C11.4789 5.83755 10.8829 6.27347 10.1894 6.40151L5.71123 7.25507C4.48576 7.49285 3.65049 8.63448 3.81206 9.87367L4.38212 14.3975C4.47205 15.0956 4.24189 15.7952 3.76024 16.3089L0.635598 19.6332C-0.211866 20.5447 -0.211866 21.9561 0.635598 22.8676L3.76024 26.1904C4.24189 26.7041 4.47205 27.4037 4.38212 28.1033L3.81206 32.6271C3.65049 33.8648 4.48576 35.008 5.71123 35.2442L10.1894 36.0978C10.8829 36.2258 11.4789 36.6633 11.8203 37.2791L14.0136 41.2771C14.6172 42.3669 15.9585 42.8043 17.088 42.2769L21.214 40.3336C21.8557 40.0318 22.5873 40.0318 23.229 40.3336L27.3551 42.2769C28.483 42.8043 29.8243 42.3669 30.4279 41.2771L32.6228 37.2791C32.9627 36.6633 33.5586 36.2258 34.2522 36.0978L38.7318 35.2442C39.9573 35.008 40.7849 33.8648 40.631 32.6271L40.0594 28.1033C39.9695 27.4037 40.1935 26.7041 40.6813 26.1904L43.7998 22.8676C44.6534 21.9561 44.6534 20.5447 43.7998 19.6332ZM27.4191 7.71843L30.8516 7.28403C31.7905 7.16209 32.6563 7.79616 32.8377 8.72593L33.4839 12.1234C33.4916 12.1691 33.5022 12.2133 33.5144 12.256C33.3712 12.1737 33.2111 12.1127 33.0389 12.0792L30.1048 11.5213C29.6505 11.436 29.2588 11.151 29.0363 10.747L27.599 8.12692C27.5136 7.9745 27.4069 7.84037 27.2834 7.7291C27.3276 7.72757 27.3734 7.72453 27.4191 7.71843ZM31.7067 21.7504L32.6731 23.8019C32.9337 24.3629 32.7173 25.0305 32.1746 25.3292L30.1886 26.4205C29.8822 26.5897 29.6643 26.887 29.6018 27.2314L29.1765 29.4568C29.0592 30.0665 28.4906 30.478 27.8748 30.4018L25.6266 30.1183C25.2791 30.0726 24.9316 30.1854 24.6755 30.4277L23.0233 31.9778C22.5706 32.4016 21.8694 32.4016 21.4167 31.9778L19.7645 30.4277C19.5084 30.1854 19.1609 30.0726 18.8134 30.1183L16.5652 30.4018C15.9494 30.478 15.3808 30.0665 15.2635 29.4568L14.8398 27.2314C14.7757 26.887 14.5593 26.5897 14.2529 26.4205L12.2654 25.3292C11.7227 25.0305 11.5063 24.3629 11.7669 23.8019L12.7348 21.7504C12.8842 21.4318 12.8842 21.069 12.7348 20.7489L11.7669 18.6989C11.5063 18.1364 11.7227 17.4704 12.2654 17.1701L14.2529 16.0803C14.5593 15.9111 14.7757 15.6139 14.8398 15.2694L15.2635 13.0425C15.3808 12.4344 15.9494 12.0198 16.5652 12.099L18.8134 12.3825C19.1609 12.4283 19.5084 12.3124 19.7645 12.0731L21.4167 10.5199C21.8694 10.0993 22.5706 10.0993 23.0233 10.5199L24.6755 12.0731C24.9316 12.3124 25.2791 12.4283 25.6266 12.3825L27.8748 12.099C28.4906 12.0198 29.0592 12.4344 29.1765 13.0425L29.6018 15.2694C29.6643 15.6139 29.8822 15.9111 30.1886 16.0803L32.1746 17.1701C32.7173 17.4704 32.9337 18.1364 32.6731 18.6989L31.7067 20.7489C31.5558 21.069 31.5558 21.4318 31.7067 21.7504ZM18.472 7.24592L20.993 4.87424C21.685 4.23255 22.755 4.23255 23.447 4.87424L25.968 7.24592C26.0016 7.27793 26.0366 7.30689 26.0732 7.33585C25.9071 7.35262 25.7425 7.39682 25.5839 7.47151L22.8815 8.74575C22.4608 8.9439 21.9807 8.9439 21.56 8.74575L18.8576 7.47151C18.6991 7.39682 18.5329 7.35262 18.3668 7.33585C18.4034 7.30689 18.4384 7.27793 18.472 7.24592ZM10.9561 12.1234L11.6038 8.72593C11.7837 7.79616 12.6495 7.16209 13.5899 7.28403L17.0209 7.71843C17.0666 7.72453 17.1124 7.72757 17.1581 7.7291C17.0346 7.84037 16.9279 7.9745 16.8426 8.12692L15.4052 10.747C15.1827 11.151 14.791 11.436 14.3368 11.5213L11.4026 12.0792C11.2304 12.1127 11.0704 12.1737 10.9256 12.2575C10.9378 12.2133 10.9469 12.1691 10.9561 12.1234ZM10.5323 25.7407L10.1574 28.7038C10.1345 28.8776 10.1421 29.0498 10.1772 29.2129C10.1391 29.187 10.0994 29.1641 10.0598 29.1413L7.02815 27.4768C6.20051 27.0196 5.86823 26.0014 6.26757 25.1448L7.74301 22.014C7.76283 21.9714 7.78112 21.9287 7.79636 21.886C7.86495 22.0384 7.95792 22.1817 8.07681 22.3097L10.1238 24.4878C10.4393 24.8232 10.5918 25.282 10.5323 25.7407ZM10.1238 18.013L8.07681 20.1911C7.95792 20.3191 7.86495 20.4624 7.79636 20.6133C7.78112 20.5706 7.76283 20.5279 7.74301 20.4868L6.26757 17.356C5.86823 16.4994 6.20051 15.4828 7.02815 15.024L10.0598 13.3595C10.0994 13.3367 10.1391 13.3138 10.1772 13.2894C10.1421 13.4525 10.1345 13.6217 10.1574 13.7955L10.5323 16.7601C10.5918 17.2173 10.4393 17.6761 10.1238 18.013ZM17.0209 34.7839L13.5899 35.2168C12.6495 35.3342 11.7837 34.7062 11.6038 33.7764L10.9561 30.3774C10.9469 30.3317 10.9378 30.2875 10.924 30.2433C11.0688 30.3256 11.2304 30.3866 11.4026 30.4201L14.3368 30.9795C14.791 31.0633 15.1827 31.3499 15.4052 31.7522L16.8426 34.3724C16.9279 34.5263 17.0346 34.6604 17.1581 34.7717C17.1124 34.7732 17.0666 34.7778 17.0209 34.7839ZM25.968 35.2549L23.447 37.622C22.755 38.2683 21.685 38.2683 20.993 37.622L18.472 35.2549C18.4384 35.2229 18.4034 35.1924 18.3683 35.165C18.5345 35.1467 18.6991 35.1025 18.8576 35.0278L21.56 33.7535C21.9807 33.5569 22.4608 33.5569 22.8815 33.7535L25.5839 35.0278C25.7425 35.1009 25.9071 35.1467 26.0717 35.165C26.0366 35.1924 26.0016 35.2229 25.968 35.2549ZM33.4839 30.3774L32.8377 33.7764C32.6563 34.7062 31.7905 35.3342 30.8516 35.2168L27.4191 34.7839C27.3734 34.7778 27.3292 34.7732 27.2834 34.7717C27.4069 34.6604 27.5136 34.5263 27.599 34.3724L29.0363 31.7522C29.2588 31.3499 29.6505 31.0633 30.1048 30.9795L33.0389 30.4201C33.2111 30.3866 33.3712 30.3256 33.516 30.2433C33.5022 30.2875 33.4931 30.3317 33.4839 30.3774ZM37.4134 27.4768L34.3802 29.1413C34.339 29.1641 34.2994 29.187 34.2613 29.2129C34.2979 29.0498 34.3055 28.8776 34.2842 28.7038L33.9092 25.7407C33.8498 25.282 33.9976 24.8232 34.3177 24.4878L36.3601 22.3097C36.4806 22.1817 36.5751 22.0369 36.6436 21.8845C36.6589 21.9287 36.6772 21.9714 36.697 22.014L38.1724 25.1448C38.5718 26.0014 38.241 27.0196 37.4134 27.4768ZM38.1724 17.356L36.697 20.4868C36.6772 20.5295 36.6589 20.5721 36.6436 20.6163C36.5766 20.4639 36.4806 20.3206 36.3601 20.1911L34.3177 18.013C33.9976 17.6761 33.8498 17.2173 33.9092 16.7601L34.2842 13.7955C34.3055 13.6217 34.2979 13.451 34.2628 13.2879C34.3009 13.3138 34.3406 13.3367 34.3802 13.3595L37.4134 15.024C38.241 15.4828 38.5718 16.4994 38.1724 17.356Z" fill="white"/>
<path id="Vector_2" d="M28.5085 22.7489C29.3367 19.2399 27.1634 15.7239 23.6544 14.8957C20.1454 14.0675 16.6294 16.2407 15.8012 19.7498C14.973 23.2588 17.1462 26.7748 20.6552 27.603C24.1642 28.4312 27.6802 26.258 28.5085 22.7489Z" fill="white"/>
</g>
</svg>
