<svg width="20" height="18" viewBox="0 0 20 18" fill="none" xmlns="http://www.w3.org/2000/svg">
<path id="Icon_Arrow" d="M-1.8398e-06 17.2274L-1.20207e-06 9.93258C-1.16073e-06 9.45971 0.190217 9.00476 0.527627 8.67084L8.78623 0.497527C9.45652 -0.165841 10.5412 -0.165841 11.2115 0.497527L19.4724 8.67084C19.8098 9.00477 20 9.45971 20 9.93258L20 17.2274C20 17.9154 19.1599 18.2583 18.6685 17.772L15 14.1414L10.8107 9.99533C10.3623 9.55159 9.63542 9.55159 9.18931 9.99533L5 14.1414L1.33152 17.772C0.840124 18.2583 -1.89976e-06 17.9132 -1.83961e-06 17.2251L-1.8398e-06 17.2274Z" fill="#8F80D7"/>
</svg>
