<svg width="193" height="48" viewBox="0 0 193 48" fill="none" xmlns="http://www.w3.org/2000/svg">
<g id="Logo_Main">
<path id="Vector" d="M18.9422 15.5837C18.7736 15.2871 18.6751 14.9551 18.6751 14.6091V8.65551C18.6751 7.10885 17.5646 5.81643 16.0956 5.55512L17.3819 2.53243L24.3051 7.97752C24.4808 8.11877 24.6917 8.18233 24.9025 8.18233C25.1907 8.18233 25.4789 8.05521 25.6687 7.80802C25.999 7.38428 25.9287 6.76985 25.5 6.43086L17.5787 0.208905C17.3397 0.0182208 17.0304 -0.0453406 16.7352 0.0323455C16.44 0.110032 16.2011 0.314841 16.0816 0.597336L14.0081 5.46331C14.0081 5.46331 14.0011 5.49863 13.9941 5.51275H11.3021C9.57304 5.51275 8.1673 6.92522 8.1673 8.66257V14.6162C8.1673 14.9622 8.07593 15.2941 7.90724 15.5908L0.653665 28.2183C-0.217888 29.7367 -0.217888 31.5447 0.653665 33.0631C1.52522 34.5744 3.08558 35.4855 4.82869 35.4855H22.0278C23.7709 35.4855 25.3243 34.5744 26.2028 33.0631C27.0744 31.5447 27.0744 29.7367 26.2028 28.2183L18.9422 15.5837ZM9.60115 16.5654C9.94555 15.9721 10.1213 15.3012 10.1213 14.6091V8.65551C10.1213 7.99164 10.6554 7.46197 11.3091 7.46197H15.5474C16.2011 7.46197 16.7352 7.99164 16.7352 8.65551V14.6091C16.7352 15.3012 16.911 15.9721 17.2483 16.5654L19.5116 20.4921H7.34495L9.60115 16.5654ZM19.8279 28.6279C19.4413 28.7338 19.2093 29.2 19.3288 29.6449C19.8981 31.8837 20.7767 32.7523 20.7767 32.7523C15.7442 32.145 16.4892 29.5955 16.5384 29.4189C10.9577 32.265 7.52067 27.5544 6.17819 25.0897C5.8127 24.4258 6.12196 23.5359 6.78266 23.3523C16.1167 20.7604 17.7052 26.9541 17.7052 26.9541C20.6853 25.697 22.9978 28.0276 22.9978 28.0276C21.5358 28.19 20.4675 28.4443 19.8279 28.6279Z" fill="white"/>
<path id="Vector_2" d="M12.5602 23.8608C12.019 24.3198 11.3161 24.6023 10.543 24.6023C9.7698 24.6023 9.06694 24.3198 8.52573 23.8608C8.44139 23.7901 8.3219 23.8678 8.35704 23.9738C8.50464 24.4046 8.77876 24.7789 9.13722 25.0472L8.74362 25.4498C8.68739 25.5133 8.70847 25.6193 8.78579 25.6546L9.26374 25.8735C9.34105 25.9088 9.43945 25.8523 9.44648 25.7676L9.48163 25.2732C9.74872 25.4145 10.0509 25.4992 10.3672 25.5275L10.1634 26.0995C10.1283 26.1843 10.1915 26.269 10.2829 26.269H10.803C10.8944 26.269 10.9576 26.1843 10.9295 26.0995L10.7187 25.5275C11.035 25.4992 11.3372 25.4145 11.6043 25.2732L11.6465 25.7676C11.6535 25.8523 11.7449 25.9088 11.8222 25.8735L12.3001 25.6546C12.3845 25.6193 12.4055 25.5133 12.3423 25.4498L11.9557 25.0472C12.3071 24.7789 12.5813 24.4046 12.7289 23.9738C12.764 23.8678 12.6445 23.7901 12.5602 23.8608Z" fill="white"/>
<path id="Vector_3" d="M57.4944 31.8343C57.4522 31.1704 57.4171 30.9727 57.389 30.8526C57.3609 30.7396 57.3117 30.6196 57.2414 30.4995C57.2765 30.3229 57.2976 30.1464 57.2976 29.9557L57.0516 26.8694L56.8267 25.7818L56.8829 23.3594L56.8197 22.1376H56.5315L56.5807 22.067C56.7423 21.834 56.8267 21.5656 56.8267 21.2548L56.7634 17.8084L56.7072 17.646L56.897 16.855L56.9462 16.1134C56.9462 15.8168 56.7775 15.3507 56.2011 15.2095L56.2855 14.2419L55.3577 14.0018L55.182 13.9806C54.8797 13.9806 54.6408 14.1218 54.0644 14.6374L53.214 15.3648L52.6587 16.177L52.1245 16.7844L52.2651 17.0669C52.2651 17.0669 52.2229 17.1375 52.1878 17.1869L51.8926 17.6036L52.1948 18.0132C52.1948 18.0132 52.2159 18.0415 52.2229 18.0485C51.8855 18.3028 51.759 18.7689 51.6817 19.1997L51.6184 19.5458L51.4849 19.5881L51.2881 20.3791L50.5712 22.0317L50.4025 22.9922L49.9527 23.6984L48.5821 26.9612L46.9163 29.9698L46.1994 30.8032L46.0307 30.4571L45.6722 30.0263L45.2716 29.0235L44.9904 28.7622L44.8498 28.2113L44.1891 27.498L43.7182 26.8482L43.5987 26.8271L43.6409 26.6505L43.662 26.481C43.662 26.2621 43.6128 25.9937 43.0224 24.8496L42.7342 24.4329L42.7834 24.3552L42.678 24.0445C42.5866 23.7691 42.4812 23.5854 42.3547 23.4512C42.2774 23.3736 42.186 23.31 42.0946 23.2676L42.2633 23.1193L41.5604 21.0642L41.0684 19.9483C40.8576 19.5669 40.6045 19.3409 40.3585 19.2068L40.4991 18.9808L39.9649 17.2646L39.6768 17.1234L39.9298 16.4877L39.7541 16.1911C39.5854 15.9086 39.4589 15.6968 39.3675 15.5414C39.3042 15.4425 39.2621 15.3578 39.2339 15.2871C39.2129 15.2306 39.1988 15.16 39.1847 15.0823L39.1285 14.7221L38.8052 14.5597C38.8052 14.5597 38.7701 14.5385 38.756 14.5315C38.756 14.5173 38.756 14.5032 38.756 14.482L38.7279 13.9594L37.9126 13.7617L37.7439 13.7405C37.4768 13.7405 37.2167 13.8394 36.9356 14.0512L36.3522 14.5032L35.8813 14.708L35.811 14.8634L35.6564 14.9411C34.8973 15.3083 34.7426 15.7886 34.7426 16.1276V16.2829L34.9957 16.8479L34.9675 17.4482L35.1081 18.3522H34.8902L35.1714 19.9624L34.9957 19.9766L35.1362 21.7139L35.1081 22.0246L35.1925 23.6278L35.1081 25.4499V25.5417C35.1081 25.7677 35.1503 25.9937 35.2487 26.2338C35.1573 26.4174 35.1081 26.6011 35.1081 26.7917L35.1362 27.159L35.3049 27.5121L35.2768 27.7381L34.9675 27.9712L35.0238 28.6562L34.9675 29.1223L35.0308 30.3794L34.8059 32.1027V33.501L34.4966 34.2708L34.7075 35.4008L35.6423 35.535L36.1343 35.429L36.7528 34.9135L37.8493 34.1578L37.9196 34.1013C38.2359 33.8259 38.271 33.3809 38.271 33.0208L38.2148 32.0179L38.3554 32.0038V31.0786C38.3554 30.782 38.3062 30.4924 38.2007 30.2029L38.3272 29.8568L38.2359 26.5728L38.3132 25.9937L38.3483 24.9061L38.4327 24.3623L38.1656 23.8044C38.2499 23.6631 38.3062 23.5007 38.3343 23.2959C38.3483 23.1758 38.3624 23.0134 38.3764 22.8298L38.4116 22.3213C38.4959 22.4908 38.6154 22.7026 38.7771 22.9851L39.0231 23.4371H38.9669L41.7572 29.2283L42.179 29.5955C42.1649 29.6732 42.1298 29.7579 42.0806 29.8568L41.8837 30.2241L42.425 31.0504L42.7131 31.8908L43.0505 32.4063L43.3598 33.2891L44.0907 34.6098L44.2243 34.4686C44.2454 34.5392 44.2665 34.6027 44.2876 34.6592C44.3508 34.8005 44.4633 34.9841 44.8358 35.4079L45.1099 35.7257L45.5176 35.6338C45.8409 35.5632 46.0869 35.4785 46.2767 35.3796C46.5156 35.2525 46.7195 35.0618 46.8671 34.8217C46.9795 34.6451 47.099 34.3697 47.2396 33.9671C47.2607 33.9106 47.2747 33.8753 47.2888 33.8471C47.2958 33.8471 47.3028 33.8471 47.3099 33.8471L47.7949 33.7694L47.8862 33.2891L47.9284 33.0066C47.9284 32.9219 47.9214 32.816 47.8722 32.6182L48.5891 31.9332L48.9546 31.3964L49.8683 29.652L51.1686 27.3638L51.6536 26.2479C51.6958 26.1703 51.8082 26.0008 52.1315 25.7324L52.3283 25.57L52.4197 25.0756L52.7782 24.2634L52.8906 23.7055L53.0101 23.5219L53.1718 23.1334L53.4881 22.8227L53.5232 22.406L53.6005 22.286L53.6357 22.4555V23.2041L53.6919 23.2253L53.9098 25.1462L53.8536 25.7041L53.9098 26.6858L53.8817 28.2254L53.973 28.8257L54.0574 30.5631L54.1909 31.3258L53.9379 33.0773L53.966 33.6917L53.8536 34.5109L53.7692 35.5562L54.4299 35.6409L54.7532 35.6762C55.0484 35.6762 55.3436 35.5491 55.6529 35.3019C56.1308 35.3514 56.5666 34.97 56.8759 34.6239C57.3046 34.1154 57.5225 33.6069 57.5225 33.1126L57.4663 31.8767L57.4944 31.8343Z" fill="white"/>
<path id="Vector_4" d="M73.6815 28.4937C73.4706 28.303 73.4425 28.2112 73.4425 28.2112C73.4425 28.19 73.4565 28.1547 73.4565 28.1547L73.7166 27.4908L73.6533 26.4314V26.043C73.6533 25.8453 73.5971 25.6193 73.4776 25.3438C73.4073 25.1814 73.3089 24.9483 73.1894 24.6447L73.33 24.115L73.3511 23.6559L73.4847 23.2039L73.4214 22.0881L73.4987 21.629V21.4383C73.5057 20.9228 73.0981 20.5767 72.7888 20.3578L72.5217 20.1671L71.9102 20.3295L70.877 20.4708L70.378 20.951L69.4291 21.2688V22.0175C69.4291 22.2223 69.4643 22.3847 69.5275 22.5189L69.886 23.2746L69.9914 24.9342L70.2163 26.156L70.125 26.4597L70.1882 27.0106L70.0476 27.2507L70.1671 28.0064L69.9563 28.2606L69.3518 29.8567L68.677 30.2804L67.6368 31.2904L66.1608 32.3568L64.8745 32.7946L64.5934 32.9641L64.3404 32.6675L63.5813 32.3638L63.2861 31.8624L63.1104 31.6223L63.6937 27.286C63.7781 27.1871 63.8554 27.0529 63.9046 26.8834L64.0171 25.7605L64.3755 24.0726L64.5653 23.0274L65.0362 21.8409V21.6149C65.0362 21.2759 64.9448 20.9793 64.7691 20.7321C64.5512 20.4355 64.2279 20.266 63.8554 20.266H63.5813L62.049 21.1629L61.0791 21.4807L60.2145 22.5189L60.3973 23.5994L60.8752 23.6701L60.6644 24.5458L60.6152 25.7888C60.58 26.0006 60.5379 26.2125 60.4887 26.4244L60.2075 27.5402C60.0951 28.0982 60.074 28.2959 60.074 28.4089V28.5996L60.1583 29.0516L59.6804 30.1816L59.5328 30.7889L59.582 31.5234L59.7225 31.7212L59.6312 31.7847L59.5679 32.491C59.5679 33.2819 59.828 33.9458 60.3129 34.4472C60.6222 34.7862 61.1283 35.097 61.8663 35.3865C62.5832 35.669 63.1596 35.8032 63.6234 35.8032C63.7992 35.8032 64.01 35.7679 64.2912 35.6902L64.8113 35.4854L65.6899 35.3371L65.8094 35.3018C66.0413 35.217 66.3154 35.0617 66.702 34.7862L67.7985 33.9529L68.5224 33.2466L69.8508 32.378L70.0547 32.1873L70.2304 34.419L70.378 35.0475L70.2093 35.6408C69.9984 36.1281 69.893 36.6295 69.893 37.1098L69.8649 38.2609L69.5908 39.5039L69.6611 40.0124L69.2604 40.6409L68.8247 42.0322C68.677 42.5125 68.5295 42.7032 68.4592 42.7667L67.8196 43.1693L66.5685 44.4617C66.5685 44.4617 66.3857 44.6382 65.5915 45.0408C64.7902 45.408 64.3825 45.4857 64.1928 45.4928L63.6234 45.4151L63.4126 45.5775L63.3212 45.5069L62.2107 45.4222L60.9244 44.8854L60.7347 44.9137C60.7347 44.9137 60.7136 44.8996 60.7066 44.8854L60.1653 44.0168L59.6593 43.2964L59.1673 42.0181L58.6401 42.0746C58.1481 42.124 57.8107 42.2794 57.5858 42.5619C57.2133 43.0633 57.0306 43.6001 57.0306 44.1721C57.0306 44.7795 57.2063 45.2386 57.5507 45.5422L58.2817 46.0083L58.7385 46.6581L59.3711 46.8135L60.2848 47.4067C60.6152 47.5974 61.0088 47.7104 61.4305 47.7457L63.6586 47.9999L65.1416 47.555L66.1046 47.1878C66.5755 46.9618 66.8566 46.8346 66.9621 46.7852L67.7071 46.5733L68.0445 46.2697L68.4381 46.0225L68.8739 45.5917L69.1058 45.4504C69.4853 45.2739 69.8227 44.9349 70.132 44.4405L70.7505 43.4871L71.7697 42.1452L72.2898 41.8133L73.0348 39.857L73.0067 39.1225L73.1613 38.7906L73.3441 37.9714L73.5901 37.3781L73.562 35.7962L73.7096 35.4148L73.6463 34.1859L73.7939 33.1478L73.4495 32.724L73.8993 31.4387L73.8642 29.433L73.9204 28.7197L73.6744 28.4866L73.6815 28.4937Z" fill="white"/>
<path id="Vector_5" d="M103.392 32.3851L103.181 32.1379L102.731 31.3681L102.337 30.9232V30.4359L101.965 30.2382C101.887 30.1958 101.838 30.1675 101.81 30.1464L101.747 29.9274L101.36 29.3201L100.96 29.1152L100.974 28.9528C101.016 28.861 101.037 28.7551 101.037 28.6491C101.037 28.3666 100.939 27.9853 100.496 27.6604C100.489 27.5756 100.468 27.5121 100.454 27.4485C100.411 27.3285 100.341 27.166 100.109 26.7988C100.074 26.7352 100.018 26.6293 99.9406 26.4951C99.8703 26.3609 99.814 26.2691 99.7789 26.2055C99.7367 26.1208 99.6805 26.029 99.6313 25.9513L98.9776 24.8213L98.8441 24.6518C98.8371 24.3128 98.6684 23.988 98.2818 23.5995V23.3594L97.3821 21.6009L96.9112 21.2054L96.8761 21.1489L96.9885 20.8805L96.9323 20.6616L96.2364 19.3268L96.0256 19.0725V19.0443C96.0256 18.8466 95.9764 18.6771 95.892 18.5287L96.0537 18.4722L95.3227 17.1092L95.0486 16.3465L94.4723 15.2377L94.0435 14.6515L93.9873 14.5456L94.2825 13.7051H93.6429L93.4601 13.0483L92.8838 13.0978C92.3566 13.1472 91.9068 13.3873 91.5835 13.797L91.3726 14.2207L90.5854 14.7574C90.2621 14.9481 90.0723 15.2801 90.0723 15.6614C90.0723 15.7744 90.0934 15.8945 90.1426 16.0569C89.8474 16.1699 89.6225 16.3747 89.4889 16.6431C89.4046 16.8126 89.3343 17.0456 89.264 17.3988L89.1375 17.992L89.1867 18.1262C88.9407 18.4369 88.772 18.7194 88.6736 18.9807L87.4717 22.1941C87.3382 22.3283 87.2608 22.4342 87.2116 22.5402L86.9727 23.2535L86.6212 23.8538L86.7688 24.0939C86.7267 24.1292 86.6775 24.1716 86.6072 24.221L85.9676 24.7154L86.2768 25.0332L86.0238 25.2804L85.328 26.4457L84.836 27.4132L84.4564 28.2748L84.1331 28.7339L83.4865 30.1605L82.9382 30.8314V31.2975L82.3478 31.3823V31.8837L81.7363 32.8654L81.3568 33.3527L80.422 35.0123L80.9421 35.3725C81.3708 35.6762 81.7996 35.8316 82.2283 35.8316C82.4743 35.8316 82.6641 35.8174 82.8258 35.7892L83.4794 35.6762L83.4373 35.3231C83.7184 35.1677 83.8941 34.97 83.9714 34.7369L84.7376 32.9713L85.0187 32.5476L85.0468 32.2298C85.4193 31.6506 85.7356 31.0362 85.9887 30.3935L86.1292 30.337L86.5158 29.4754C86.6564 29.1435 86.7548 28.9669 86.811 28.8893L87.2257 28.8681L87.7318 28.7551L88.9407 28.8398H89.0321C89.2851 28.8398 89.517 28.7833 89.7068 28.6703C89.7771 28.635 89.8404 28.5856 89.9107 28.5291L90.5503 28.7551L91.3023 28.5432L92.4691 28.5997L94.5004 28.3243L94.8588 28.3808L95.3789 28.3525L96.7987 28.6209H96.9885C97.1221 28.6279 97.347 28.5997 97.5719 28.4584C97.6844 28.7198 97.832 29.0022 98.0217 29.3201C98.092 29.4472 98.1904 29.5602 98.2959 29.6591C98.3029 29.9557 98.3732 30.2311 98.5137 30.5136L99.1885 31.7142L99.2517 32.1097L99.807 33.282L100.074 34.0377H100.264C100.292 34.1083 100.32 34.179 100.355 34.2567L100.369 34.3414L100.327 34.7581L100.531 35.203L100.629 36.1211L101.606 35.9234H102.387L103.132 34.8146L103.736 34.2849L103.799 34.1578C103.884 33.9742 103.926 33.8188 103.926 33.6705C103.926 33.501 103.884 33.3174 103.778 33.049C103.687 32.823 103.56 32.6041 103.392 32.3851ZM95.3368 25.8171L95.3719 25.7324L93.7905 25.9796C93.439 26.0219 93.179 26.0572 93.0103 26.0714C92.7783 26.0926 92.6518 26.1067 92.5464 26.142L92.2582 26.0219L90.9439 26.1137L89.0672 26.0007L88.7931 26.029L88.4979 25.5629C88.6314 25.4146 88.7439 25.2592 88.8282 25.0968C88.9758 24.8001 89.0742 24.3905 89.1234 23.8608C89.1726 23.8326 89.2148 23.7973 89.257 23.762C89.3976 23.6278 89.503 23.4583 89.6295 23.1264L89.6928 22.9569C89.742 22.9004 89.7841 22.8509 89.8193 22.7874C89.8966 22.6814 89.9458 22.5967 89.9809 22.5331C90.002 22.4907 90.0442 22.3989 90.1004 22.2577C90.1637 22.1235 90.234 21.954 90.2902 21.7986L90.9439 20.3297L91.0563 19.7717C91.0634 19.7223 91.1126 19.6305 91.2672 19.4963C91.4991 19.2632 91.6538 19.0867 91.7451 18.9242C91.7943 18.8395 91.8576 18.7053 91.956 18.3804L92.0685 18.3522V18.331L93.0665 20.3508L93.5937 20.6263L93.4812 20.9511L94.6901 23.3877H94.8869L95.5266 24.6942L95.9202 24.8001C95.9694 25.2098 96.0326 25.5134 96.124 25.7465L95.3368 25.8171Z" fill="white"/>
<path id="Vector_6" d="M108.361 29.3976V28.19H107.918C107.946 27.9922 107.96 27.7945 107.96 27.5897C107.96 27.4625 107.96 27.3354 107.946 27.2083L108.284 26.8199L108.157 21.4666L107.763 21.0358L107.988 20.492L107.777 19.3903L108.136 18.6699V16.5017L108.262 13.4508L108.002 13.02L108.024 12.7657C108.319 12.4691 108.368 12.1301 108.368 11.9324V11.6075C108.368 11.2968 108.333 10.9436 108.087 10.6894C108.087 10.6894 108.087 10.6894 108.08 10.6823L108.241 10.3292C108.326 10.1456 108.368 9.92667 108.368 9.59473L108.34 9.07918L108.431 7.92801V7.57489L108.396 7.24296L108.284 6.78391L108.248 6.0353L107.679 5.11719L106.793 5.32906L106.126 5.85167L104.565 6.72035L104.439 7.61021L104.305 8.18226L104.586 10.2586L104.523 10.8024L104.755 11.7841L104.537 12.4621L104.594 13.4084V14.3053L104.854 14.5313C104.84 14.609 104.832 14.6585 104.832 14.6867L105.1 14.7432L105.142 14.7785L105.163 14.7573L105.493 14.828H104.811V15.4918L105.114 15.513C104.861 16.0215 104.748 16.3817 104.748 16.6924L104.804 19.3479V20.386L105.064 20.5979C105.064 20.5979 105.1 20.6262 105.114 20.6403L104.882 21.5866L104.861 24.228L104.636 25.1885L104.615 26.2478H104.636L104.572 26.5303L105.022 26.7139C104.741 27.2154 104.615 27.5544 104.615 27.8369C104.615 28.0346 104.678 28.2041 104.924 28.6632L104.973 28.7973C104.832 29.1575 104.741 29.5742 104.713 30.0474L104.643 32.046L104.432 33.7551L104.523 34.4684V34.7933C104.523 35.217 104.832 35.6761 105.5 35.6761L105.908 35.6478L106.407 35.3371L106.786 35.2806L107.749 34.6662L108.663 34.4967L108.487 33.7692C108.586 33.5927 108.635 33.3949 108.635 33.176L108.607 32.611L108.663 31.7988L108.354 29.3976H108.361Z" fill="white"/>
<path id="Vector_7" d="M122.917 31.0856C122.432 31.6083 122.158 31.8413 122.01 31.9402C121.849 32.0532 121.694 32.1238 121.547 32.145L121.378 32.1732L120.549 32.7665L120.324 32.6817L120.042 32.8371C119.684 33.0349 119.487 33.1196 119.403 33.1549L117.674 32.9713L117.14 32.9501L116.451 32.71L116.113 32.4134L115.256 31.7848L114.94 31.3258H114.687L114.286 30.7537C113.963 30.2876 113.822 30.1393 113.71 30.0545C113.71 30.0545 113.66 30.0263 113.632 30.0122L113.794 29.539L113.66 29.2777C113.541 29.0446 113.464 28.8186 113.421 28.5926C113.372 28.3454 113.344 28.0276 113.337 27.6251L113.309 26.7705L113.344 26.4245L113.843 25.4216L114.174 25.3651L114.476 24.6942L115.031 24.4964L115.158 24.3058C115.396 23.9597 115.565 23.8538 115.635 23.8255H115.938L117.329 23.5642C117.4 23.5501 117.498 23.5501 117.66 23.5783L119.979 23.9526L120.471 23.8961L120.766 23.9385H121.097L121.722 23.6278L122.608 23.0698L122.636 22.7873C122.826 22.6814 122.959 22.5684 123.072 22.4484C123.248 22.2506 123.374 21.961 123.479 21.5161L123.62 20.9441L123.093 20.7039C122.882 20.6051 122.692 20.5344 122.51 20.485L122.369 20.4426L121.153 20.6263L119.719 20.3791L119.072 20.5627L118.623 20.365C118.573 20.3367 118.524 20.3155 118.468 20.2943L118.306 20.252H118.194L115.551 21.05L114.954 21.5161L114.806 21.5656L113.632 22.3919L112.149 23.8467L111.229 24.6448L110.568 26.0431L109.956 27.1166L110.034 28.5856L109.781 29.6025L110.216 30.0898L110.146 30.3582L110.266 31.5306L110.561 31.919L110.898 32.5193L111.439 33.1902H111.538L112.318 34.0095L113.07 34.6733L114.539 35.0194L115.495 35.2878L116.233 35.3937L116.507 35.6338L117.941 35.7468L119.311 35.6409L120.134 35.1536C120.401 35.0264 120.506 35.0123 120.485 35.0123L121.659 35.0406L122.39 34.6592L122.664 34.5886L123.233 34.1931L123.704 34.0589L124.463 33.0914L124.688 32.7735L124.604 32.5193L124.724 31.9896C124.759 31.8766 124.78 31.7566 124.78 31.6294C124.78 31.3611 124.681 31.0998 124.492 30.9161C124.063 30.4712 123.318 30.556 122.91 31.0786L122.917 31.0856Z" fill="white"/>
<path id="Vector_8" d="M139.153 21.9115L138.598 21.5655L137.649 20.605L135.744 20.4708L134.746 20.3366L134.374 20.718C134.107 20.4214 133.783 20.3437 133.608 20.3225H133.523L132.708 20.4214L132.146 20.5414L131.401 20.831L131.056 20.6544L129.545 21.8197L129.651 20.3578L129.566 19.9976L129.623 19.4538L129.496 18.8888L129.58 18.6275L129.658 18.1544L129.454 16.9043L129.637 16.5653V16.2969C129.637 15.9933 129.503 15.6755 129.187 15.2658L129.524 14.5667L129.489 13.5779L129.637 10.7812V9.69363L129.496 9.71481C129.566 9.54532 129.608 9.34051 129.608 9.08626L129.637 7.23592L129.763 6.09181L129.742 5.98588C129.707 5.7952 129.517 5.17371 128.561 5.17371C128.231 5.17371 127.83 5.30789 127.254 5.61157L126.045 6.24719C125.694 6.47318 125.462 6.7698 125.37 7.11586L125.251 7.56079L125.694 7.92097L126.024 9.35463L125.996 12.1372C125.996 12.3561 126.073 12.5539 126.312 12.9141L126.207 13.2178L126.059 14.376L126.34 14.7573L126.157 15.2517L126.284 17.095V18.2391L126.298 18.3945C126.34 18.5781 126.432 18.7335 126.537 18.8535L126.375 19.8917V23.4158C126.368 23.7407 126.396 23.9808 126.467 24.1715C126.523 24.3269 126.614 24.4822 126.748 24.6447L126.361 25.3439L126.424 26.8481L126.249 31.2833C126.249 31.5234 126.333 31.7706 126.523 32.0743L126.193 32.6322V33.3455L126.045 33.9246L125.975 35.0405L126.214 35.21L126.509 35.9021L127.078 35.7679C127.38 35.6973 127.704 35.4995 128.118 35.1252L128.203 35.0546C128.343 35.0476 128.442 35.0264 128.533 34.9981L128.772 34.8781L129.257 34.9769L129.784 33.9317L129.728 32.5545L129.854 32.2862L129.608 29.5177V29.5036L129.763 29.553L129.552 28.3595L129.728 26.0713L129.573 25.3721L130.093 24.7506L130.325 24.5317L130.817 24.341L131.633 23.8608C131.815 23.776 132.019 23.7054 132.244 23.6559L133.924 23.5994L134.831 23.7195L135.224 23.6983L135.836 24.0514L136.356 24.2421L136.595 24.7789L136.482 25.2238L136.609 26.4244V26.5091C136.609 26.721 136.581 26.9258 136.532 27.0883C136.384 27.5403 136.307 27.9216 136.307 28.2465C136.307 28.5714 136.433 28.8468 136.658 29.0728C136.651 29.3341 136.63 29.546 136.602 29.6943L136.229 31.1774L136.44 32.3709L135.962 33.8328L135.766 34.7156L137.059 35.8527L138.507 35.0052L138.746 34.984C139.638 34.9134 139.955 34.3343 139.955 33.8187L139.983 32.4698L139.8 31.3257L139.779 31.1844L140.004 30.9231V27.9075L139.779 27.6744L140.067 27.2295L139.856 26.721C139.948 26.5939 140.011 26.4738 140.046 26.3679C140.095 26.2196 140.137 26.0007 140.151 25.4357L140.18 24.4328C140.18 23.7336 139.99 23.1475 139.617 22.6813L139.139 21.9186L139.153 21.9115Z" fill="white"/>
<path id="Vector_9" d="M155.882 30.2452C155.6 30.2452 155.2 30.337 154.841 30.7819L154.153 31.7L152.866 32.5052L150.238 32.9501L149.394 33.1196L148.34 32.7241L148.101 32.6747L147.897 32.2933L147.539 32.2439C147.44 32.2297 147.37 32.2156 147.307 32.2085L147.061 31.6577L146.14 31.2692C146.119 31.2269 146.084 31.1492 146.041 31.0009L145.795 30.3017L145.528 30.2099L145.289 29.7367L144.924 28.2536C144.875 28.1124 144.797 27.9852 144.615 27.8228C144.629 27.8016 144.643 27.7804 144.657 27.7522C144.741 27.5968 144.797 27.3849 144.826 27.1378L145.613 26.8976L146.266 26.9259L148.22 26.6575L149.001 26.6858L150.582 26.6575L151.608 26.8341L152.592 26.7776L153.682 26.9047L154.195 26.7634L154.687 26.8553L155.298 26.6504L155.889 26.7705L156.83 26.3891L156.233 24.5176C156.163 24.2987 156.071 24.0939 155.973 23.9032C155.889 23.7337 155.804 23.5783 155.713 23.4229C155.615 23.2534 155.481 23.0557 155.305 22.8297L154.033 21.5443L153.408 21.163L152.395 20.3437L152.227 20.6545C151.777 20.2943 151.313 20.1954 150.912 20.1954H150.898L150.596 20.2307L149.865 20.5062L148.937 20.6121L147.525 21.0641L146.99 21.17L145.149 22.4695L144.369 22.9144L143.574 23.9809L142.843 24.7083L142.548 25.3933L142.098 25.9795C141.937 26.1631 141.782 26.4598 141.543 27.3284C141.417 27.7734 141.353 28.1335 141.353 28.4584L141.389 29.1858L141.494 30.1887L141.909 30.8667C141.895 30.9232 141.866 31.0009 141.817 31.0997L141.578 31.5871L142.218 32.145L142.991 33.1973L143.975 33.9035L144.523 34.4332L145.992 34.9699C146.056 35.0123 146.147 35.09 146.273 35.1889L146.463 35.3442H147.089L148.642 35.429L149.956 35.316L150.976 35.4149L151.475 35.2312L153.984 34.7227C154.335 34.6733 154.609 34.5603 154.806 34.3767L154.996 34.2072L155.769 34.1578L156.943 32.0673C157.041 31.8695 157.084 31.6506 157.084 31.4105C157.084 30.7184 156.599 30.2452 155.882 30.2452ZM146.927 23.9314L148.073 23.4936L148.825 23.3099L149.535 22.9356L149.591 22.9215L150.793 23.0133L150.933 23.1687L151.932 23.9244C151.932 23.9244 151.967 23.9809 151.988 24.0021L150.849 24.2422L150.568 23.8255L148.972 24.1645L147.749 23.8961L147.293 24.0444H147.215L146.864 24.0232L146.927 23.9314Z" fill="white"/>
<path id="Vector_10" d="M176.827 32.9572V32.0249L176.715 31.3469C176.743 31.2904 176.771 31.2339 176.792 31.1774L176.841 31.0291L176.764 30.3723L176.743 30.2735L176.771 29.3836L176.553 27.3708C176.553 27.3708 176.567 27.3496 176.567 27.3355L176.855 26.8906V26.3609L176.946 24.4894L176.911 24.1857L176.764 23.7408L176.715 23.0345L176.476 21.7068L176.377 21.7562C176.216 21.1701 175.766 20.7604 175.091 20.598L174.55 20.4638L173.924 20.2025L173.292 20.2802H172.469L171.816 20.4568L171.26 20.4285L170.74 20.5415L169.805 21.0924L169.138 21.4455L169.06 21.5302C168.948 21.2195 168.793 20.9582 168.603 20.7463C168.168 20.2661 167.584 20.0754 166.874 20.2096L166.755 20.2308C166.516 20.2096 166.284 20.2802 165.954 20.485C165.947 20.4779 165.94 20.4638 165.926 20.4568L165.609 20.1107L162.889 21.0924L162.292 21.5867L161.898 21.728C161.877 21.4455 161.814 21.2054 161.708 21.0147C161.596 20.8169 161.399 20.5909 161.083 20.3014L160.759 20.0048L160.352 20.1672C159.67 20.4426 159.171 20.7039 158.827 20.9652C158.454 21.2477 158.152 21.6009 157.927 22.0175L157.674 22.4978L158.37 23.1475L158.475 23.6207L158.588 24.6942L158.834 25.351L158.876 25.6829L158.616 25.7323V26.6363L158.588 27.3567C158.581 27.5544 158.574 27.8087 158.574 28.1194C158.574 28.6985 158.63 29.0375 158.756 29.2706C158.791 29.3412 158.848 29.426 158.939 29.5107L158.7 29.8638L158.588 30.2946L158.644 31.2975L158.777 31.4105L158.538 31.8554L158.651 32.6394L158.623 35.3584L159.101 35.5208C159.354 35.6056 159.572 35.6479 159.775 35.6479C160.057 35.6479 160.303 35.5844 160.499 35.4643L161.441 34.977C161.645 34.864 161.8 34.7369 161.926 34.5956C162.025 34.4826 162.144 34.3202 162.193 34.1295L162.221 34.0236L162.011 31.3046L162.046 29.5743L161.912 29.3624L162.004 29.3271L162.074 28.4867L162.018 26.4174V26.1773C162.018 25.8242 162.046 25.5275 162.102 25.2945C162.144 25.132 162.257 24.8142 162.552 24.221L162.608 24.108L163.086 24.0374L163.887 23.7266L164.696 23.6278L164.794 23.5501L165.068 23.9668L165.595 23.7619C165.75 23.6984 165.82 23.6913 165.834 23.6913C165.834 23.6913 166.052 23.882 166.052 24.8566L166.024 26.3115L166.368 27.0248L166.115 27.3496L166.08 28.7621L165.996 29.3836L166.277 29.8921L166.312 30.1393L166.467 30.5277C166.382 30.6125 166.319 30.6972 166.27 30.7819C166.15 30.9868 166.094 31.241 166.101 31.6012L166.157 32.8795L166.045 34.4049V34.9205L166.305 35.1324C166.607 35.3796 166.825 35.5137 167.092 35.5137H167.254L168.491 34.9699L169.145 34.5038L169.313 34.4049L169.461 34.2849C169.644 34.1013 169.735 33.8965 169.735 33.6705C169.735 33.3809 169.7 32.9783 169.63 32.4557C169.559 31.9331 169.482 31.5447 169.419 31.3328L169.384 31.1633L169.489 30.5418L169.222 30.0051L169.559 29.8285L169.419 25.6123L169.341 25.5628L169.461 25.4781V24.1857C169.524 24.1221 169.693 23.9809 170.065 23.7831C170.459 23.5995 170.796 23.4795 171.064 23.4159C171.338 23.3594 171.689 23.3311 172.111 23.3311C172.294 23.3311 172.385 23.3453 172.427 23.3523L173.074 23.769L173.334 25.2592L173.608 25.6829L173.376 26.4033C173.313 26.5657 173.306 26.7423 173.306 26.9118L173.362 28.4584L173.453 29.1505L173.587 29.2494L173.362 29.8073L173.334 30.6407L173.193 31.5094L173.348 32.9289L173.172 33.4868L173.081 34.0589L173.186 35.4219L173.72 35.5208C173.994 35.5702 174.149 35.5914 174.269 35.5914C174.423 35.5914 174.564 35.5702 174.697 35.5208L175.632 34.8711L177.214 34.0024L176.869 32.9148L176.827 32.9572Z" fill="white"/>
<path id="Vector_11" d="M192.944 29.44L193 28.7267L192.754 28.4937C192.543 28.303 192.515 28.2112 192.515 28.2112C192.515 28.19 192.529 28.1547 192.529 28.1547L192.789 27.4908L192.726 26.4314V26.043C192.726 25.8453 192.67 25.6193 192.55 25.3438C192.48 25.1814 192.382 24.9483 192.262 24.6447L192.403 24.115L192.424 23.6559L192.557 23.2039L192.494 22.0881L192.571 21.629V21.4383C192.578 20.9228 192.171 20.5767 191.861 20.3578L191.594 20.1671L190.983 20.3295L189.95 20.4708L189.451 20.951L188.502 21.2688V22.0175C188.502 22.2223 188.537 22.3847 188.6 22.5189L188.959 23.2746L189.064 24.9342L189.289 26.156L189.198 26.4597L189.261 27.0106L189.12 27.2507L189.24 28.0064L189.029 28.2606L188.424 29.8567L187.75 30.2804L186.709 31.2904L185.233 32.3568L183.947 32.7946L183.666 32.9641L183.413 32.6675L182.654 32.3638L182.359 31.8624L182.183 31.6223L182.766 27.286C182.851 27.1871 182.928 27.0529 182.977 26.8834L183.09 25.7605L183.448 24.0726L183.638 23.0274L184.109 21.8409V21.6149C184.109 21.2759 184.017 20.9793 183.842 20.7321C183.624 20.4355 183.3 20.266 182.928 20.266H182.654L181.122 21.1629L180.152 21.4807L179.287 22.5189L179.47 23.5994L179.948 23.6701L179.737 24.5458L179.688 25.7888C179.653 26.0006 179.61 26.2125 179.561 26.4244L179.28 27.5402C179.168 28.0982 179.147 28.2959 179.147 28.4089V28.5996L179.231 29.0516L178.753 30.1816L178.605 30.7889L178.655 31.5234L178.795 31.7212L178.704 31.7847L178.64 32.491C178.64 33.2819 178.901 33.9458 179.386 34.4472C179.695 34.7862 180.201 35.097 180.939 35.3865C181.656 35.669 182.232 35.8032 182.696 35.8032C182.872 35.8032 183.083 35.7679 183.364 35.6902L183.884 35.4854L184.762 35.3371L184.882 35.3018C185.114 35.217 185.388 35.0617 185.775 34.7862L186.871 33.9529L187.595 33.2466L188.923 32.378L189.127 32.1873L189.303 34.419L189.451 35.0475L189.282 35.6408C189.071 36.1281 188.966 36.6295 188.966 37.1098L188.937 38.2609L188.663 39.5039L188.734 40.0124L188.333 40.6409L187.897 42.0322C187.75 42.5125 187.602 42.7032 187.532 42.7667L186.892 43.1693L185.641 44.4617C185.641 44.4617 185.458 44.6382 184.664 45.0408C183.863 45.408 183.455 45.4857 183.265 45.4928L182.696 45.4151L182.485 45.5775L182.394 45.5069L181.283 45.4222L179.997 44.8854L179.807 44.9137C179.807 44.9137 179.786 44.8996 179.779 44.8854L179.238 44.0168L178.732 43.2964L178.24 42.0181L177.713 42.0746C177.221 42.124 176.883 42.2794 176.658 42.5619C176.286 43.0633 176.103 43.6001 176.103 44.1721C176.103 44.7795 176.279 45.2386 176.623 45.5422L177.354 46.0083L177.811 46.6581L178.444 46.8135L179.357 47.4067C179.688 47.5974 180.081 47.7104 180.503 47.7457L182.731 47.9999L184.214 47.555L185.177 47.1878C185.648 46.9618 185.929 46.8346 186.035 46.7852L186.78 46.5733L187.117 46.2697L187.511 46.0225L187.946 45.5917L188.178 45.4504C188.558 45.2739 188.895 44.9349 189.205 44.4405L189.823 43.4871L190.842 42.1452L191.362 41.8133L192.107 39.857L192.079 39.1225L192.234 38.7906L192.417 37.9714L192.663 37.3781L192.635 35.7962L192.782 35.4148L192.719 34.1859L192.866 33.1478L192.522 32.724L192.972 31.4387L192.937 29.433L192.944 29.44Z" fill="white"/>
<path id="Vector_12" d="M28.8456 8.99451C27.7491 8.99451 26.8565 9.89143 26.8565 10.9932C26.8565 12.0949 27.7491 12.9918 28.8456 12.9918C29.9421 12.9918 30.8347 12.0949 30.8347 10.9932C30.8347 9.89143 29.9421 8.99451 28.8456 8.99451Z" fill="white"/>
<path id="Vector_13" d="M30.3216 7.356C31.9365 7.356 33.2456 6.04064 33.2456 4.41805C33.2456 2.79547 31.9365 1.4801 30.3216 1.4801C28.7068 1.4801 27.3977 2.79547 27.3977 4.41805C27.3977 6.04064 28.7068 7.356 30.3216 7.356Z" fill="white"/>
<path id="Vector_14" d="M35.1785 8.99452C35.1785 8.13997 34.4896 7.4408 33.6321 7.4408C32.7747 7.4408 32.0858 8.13291 32.0858 8.99452C32.0858 9.85613 32.7747 10.5482 33.6321 10.5482C34.4896 10.5482 35.1785 9.85613 35.1785 8.99452Z" fill="white"/>
</g>
</svg>
