<svg width="38" height="16" viewBox="0 0 38 16" fill="none" xmlns="http://www.w3.org/2000/svg">
<g id="Jangsik_Icon">
<path id="Vector" d="M28.1847 5.88495C28.4545 7.59448 28.2003 9.91822 26 13C27.0753 12.1797 27.5219 11.285 28.4415 9.89308C31.4059 5.40604 38 9.89308 38 9.89308C34.9293 4.35598 31.3832 4.32669 28.1847 5.88495Z" fill="white"/>
<path id="Vector_2" d="M26.9841 6.66797C26.8343 4.57768 25.6627 3.30668 24.9673 2.5839C23.8904 1.46463 21.9263 0.168848 19.7452 0.0151632C18.1737 -0.0956987 16.4898 0.386442 14.9436 1.95481C11.2513 5.69999 14.9995 8.99129 14.9995 8.99129C14.9329 8.6724 14.9266 8.31481 14.9764 7.94353C15.2141 6.16257 16.7392 4.06076 19.0831 4.34791C19.5302 4.40269 20.0166 4.52638 20.5107 4.79201C24.7401 7.06664 22.5864 10.3447 22.4426 10.7603H22.4423C18.9444 14.4064 14.9838 10.7959 14.9429 10.7607H14.9427C14.9427 10.7607 5.79521 -1.05259 0 10.0125C0 10.0125 6.19286 5.55022 8.97685 10.0125C12.6776 15.9443 18.6924 15.9708 18.6924 15.9708C18.6924 15.9708 20.6297 16.2825 22.9856 14.8687C23.5328 14.5403 24.0625 14.1825 24.4299 13.6612C24.4317 13.6588 24.4334 13.6562 24.4352 13.6538C26.537 10.6681 27.1075 8.39002 26.9841 6.66797Z" fill="white"/>
</g>
</svg>
