<svg width="363" height="133" viewBox="0 0 363 133" fill="none" xmlns="http://www.w3.org/2000/svg">
<g filter="url(#filter0_b_1_871)">
<g filter="url(#filter1_bd_1_871)">
<path d="M13.3012 22.9103L28.4391 13.1308C29.7155 12.3066 31.2976 12.0938 32.7495 12.5534L48.8177 17.6328C49.8045 17.9452 50.8649 17.9501 51.8541 17.6474L76.5836 10.0818C78.157 9.60032 79.8679 9.90668 81.1725 10.9012L88.7562 16.6893C89.8755 17.5428 91.3029 17.8954 92.6947 17.6632L141.668 9.45929C142.238 9.36325 142.823 9.36568 143.393 9.46537L190.548 17.6996C191.766 17.9124 193.019 17.6765 194.073 17.0383L204.956 10.4428C206.144 9.72311 207.579 9.51886 208.924 9.87872L238.266 17.73C239.001 17.927 239.773 17.9574 240.522 17.8176L298.33 7.08615C299.33 6.90014 300.364 7.01685 301.295 7.4217L318.635 14.9362C319.629 15.3666 320.736 15.4699 321.794 15.2317L340.272 11.0568C342.605 10.5291 344.992 11.6902 345.998 13.8408L351.53 25.6652C352.033 26.7399 352.136 27.9557 351.821 29.0973L344.996 53.8888C344.798 54.6061 344.764 55.3586 344.895 56.0905L349.937 84.1342C350.105 85.0667 350.002 86.0271 349.642 86.9049L342.354 104.672C341.501 106.751 339.36 108.016 337.107 107.773L317.017 105.601C316.579 105.553 316.137 105.563 315.702 105.629L268.006 112.849C266.488 113.079 264.947 112.614 263.815 111.586L259.534 107.697C258.079 106.375 255.981 106.01 254.158 106.763L239.821 112.682C238.981 113.029 238.063 113.146 237.162 113.019L184.293 105.631C183.804 105.563 183.31 105.565 182.822 105.638L117.742 115.445C116.545 115.624 115.323 115.375 114.296 114.741L102.183 107.253C100.486 106.204 98.3245 106.241 96.6663 107.349L82.0022 117.142C80.9479 117.846 79.6642 118.133 78.4061 117.943L63.24 115.657C61.7611 115.435 60.4577 114.575 59.6771 113.312L58.1687 110.867C57.0273 109.016 54.8144 108.101 52.6826 108.597L30.6139 113.741C28.7091 114.185 26.7172 113.504 25.4948 111.991L15.8234 100.017C14.6746 98.5931 14.3936 96.6649 15.0895 94.9786L21.1733 80.2474C21.4372 79.6079 21.5661 78.9211 21.5489 78.2305L20.9966 54.6012C20.9708 53.4888 20.5719 52.4165 19.865 51.5521L12.1341 42.1191C11.4013 41.2243 11 40.1071 11 38.9545V27.1168C11 25.4196 11.8653 23.8379 13.3 22.9115L13.3012 22.9103Z" fill="url(#paint0_linear_1_871)" fill-opacity="0.89" shape-rendering="crispEdges"/>
</g>
<path d="M34.4105 26.9732L38.0648 54.0421C38.2148 55.1494 39.3028 55.8733 40.3811 55.5815L68.041 48.1117C69.3693 47.7528 70.6097 48.9186 70.3365 50.2676L59.9602 101.51C59.6431 103.077 61.3251 104.283 62.7059 103.478L92.1331 86.3115C92.8857 85.8721 93.2309 84.9675 92.9613 84.1386L81.4312 48.6366C81.119 47.6747 81.6349 46.6407 82.5912 46.3123L97.9232 41.0509C99.2174 40.6065 99.5991 38.9585 98.6319 37.9892L82.0179 21.3626C81.0531 20.397 79.4138 20.7729 78.9625 22.0608L74.325 35.3292C73.9921 36.2802 72.9602 36.7917 72.0039 36.4779L36.8195 24.965C35.5217 24.5402 34.2275 25.6193 34.4105 26.9732Z" fill="white" fill-opacity="0.1"/>
<path d="M196.835 58.4497L156.806 101.113C155.624 102.373 156.697 104.396 158.423 104.162L203.945 98.0045C205.354 97.8142 206.031 96.1992 205.169 95.0864L192.791 79.1171C191.859 77.9151 192.73 76.1821 194.268 76.1821H233.635C234.315 76.1821 234.942 75.8148 235.266 75.2259L250.997 46.6955C251.836 45.1744 250.257 43.4655 248.639 44.1423L213.368 58.9013C211.52 59.6745 209.913 57.4115 211.287 55.97L224.834 41.7601C225.482 41.0797 225.505 40.0295 224.89 39.3214L208.946 21.0121C208.319 20.2919 207.235 20.163 206.453 20.717L166.75 48.785C165.376 49.7569 165.932 51.8849 167.613 52.0824L195.693 55.3955C197.198 55.5725 197.865 57.3537 196.837 58.4485L196.835 58.4497Z" fill="white" fill-opacity="0.1"/>
<path d="M283.464 104.164L314.311 100.013C314.827 99.944 315.289 99.6603 315.584 99.2311L340.43 63.0929C340.823 62.5218 340.861 61.7773 340.527 61.1686L321.883 27.1257C321.306 26.0708 319.888 25.8441 319.009 26.6662L293.677 50.3589C292.616 51.3508 293.07 53.1211 294.477 53.4824L324.773 61.2693C326.224 61.6427 326.645 63.4967 325.499 64.4594L282.034 100.931C280.622 102.116 281.637 104.409 283.464 104.162V104.164Z" fill="white" fill-opacity="0.1"/>
</g>
<defs>
<filter id="filter0_b_1_871" x="7" y="3" width="349" height="119" filterUnits="userSpaceOnUse" color-interpolation-filters="sRGB">
<feFlood flood-opacity="0" result="BackgroundImageFix"/>
<feGaussianBlur in="BackgroundImageFix" stdDeviation="2"/>
<feComposite in2="SourceAlpha" operator="in" result="effect1_backgroundBlur_1_871"/>
<feBlend mode="normal" in="SourceGraphic" in2="effect1_backgroundBlur_1_871" result="shape"/>
</filter>
<filter id="filter1_bd_1_871" x="-5" y="-9" width="373" height="143" filterUnits="userSpaceOnUse" color-interpolation-filters="sRGB">
<feFlood flood-opacity="0" result="BackgroundImageFix"/>
<feGaussianBlur in="BackgroundImageFix" stdDeviation="8"/>
<feComposite in2="SourceAlpha" operator="in" result="effect1_backgroundBlur_1_871"/>
<feColorMatrix in="SourceAlpha" type="matrix" values="0 0 0 0 0 0 0 0 0 0 0 0 0 0 0 0 0 0 127 0" result="hardAlpha"/>
<feOffset dy="4"/>
<feGaussianBlur stdDeviation="5.5"/>
<feComposite in2="hardAlpha" operator="out"/>
<feColorMatrix type="matrix" values="0 0 0 0 0 0 0 0 0 0 0 0 0 0 0 0 0 0 0.09 0"/>
<feBlend mode="normal" in2="effect1_backgroundBlur_1_871" result="effect2_dropShadow_1_871"/>
<feBlend mode="normal" in="SourceGraphic" in2="effect2_dropShadow_1_871" result="shape"/>
</filter>
<linearGradient id="paint0_linear_1_871" x1="11" y1="62.5" x2="352" y2="62.5" gradientUnits="userSpaceOnUse">
<stop stop-color="#2DD3AB"/>
<stop offset="1" stop-color="#AEA0DF"/>
</linearGradient>
</defs>
</svg>
