<svg width="92" height="23" viewBox="0 0 92 23" fill="none" xmlns="http://www.w3.org/2000/svg">
<g id="Logo_Main">
<path id="Vector" d="M9.02946 7.46719C8.94905 7.32506 8.90214 7.16601 8.90214 7.00019V4.14743C8.90214 3.40632 8.37277 2.78704 7.67253 2.66183L8.28566 1.21345L11.5859 3.82256C11.6696 3.89024 11.7701 3.9207 11.8706 3.9207C12.008 3.9207 12.1454 3.85979 12.2358 3.74134C12.3933 3.5383 12.3598 3.24389 12.1554 3.08145L8.37947 0.1001C8.26556 0.00873078 8.11814 -0.0217257 7.97742 0.0154989C7.8367 0.0527235 7.72279 0.150861 7.66583 0.286223L6.67745 2.61784C6.67745 2.61784 6.6741 2.63476 6.67074 2.64153H5.38752C4.56331 2.64153 3.89322 3.31834 3.89322 4.15081V7.00357C3.89322 7.16939 3.84967 7.32844 3.76926 7.47057L0.311592 13.5213C-0.103864 14.2488 -0.103864 15.1152 0.311592 15.8427C0.727048 16.5669 1.47085 17.0035 2.30176 17.0035H10.5003C11.3312 17.0035 12.0717 16.5669 12.4905 15.8427C12.9059 15.1152 12.9059 14.2488 12.4905 13.5213L9.02946 7.46719ZM4.57671 7.93757C4.74089 7.65331 4.82465 7.33183 4.82465 7.00019V4.14743C4.82465 3.82933 5.07928 3.57553 5.39087 3.57553H7.41119C7.72279 3.57553 7.97742 3.82933 7.97742 4.14743V7.00019C7.97742 7.33183 8.06118 7.65331 8.222 7.93757L9.30085 9.81911H3.50122L4.57671 7.93757ZM9.45162 13.7175C9.26734 13.7683 9.15678 13.9916 9.21374 14.2048C9.48512 15.2776 9.90393 15.6938 9.90393 15.6938C7.50501 15.4028 7.86015 14.1812 7.88361 14.0966C5.22335 15.4603 3.58498 13.2032 2.94504 12.0221C2.77082 11.704 2.91824 11.2776 3.23318 11.1897C7.68258 9.9477 8.43978 12.9155 8.43978 12.9155C9.86037 12.3132 10.9627 13.4299 10.9627 13.4299C10.2658 13.5077 9.75651 13.6296 9.45162 13.7175Z" fill="#D3CBF3"/>
<path id="Vector_2" d="M5.98723 11.4333C5.72924 11.6533 5.3942 11.7886 5.02565 11.7886C4.6571 11.7886 4.32205 11.6533 4.06407 11.4333C4.02386 11.3995 3.9669 11.4367 3.98366 11.4874C4.05402 11.6939 4.18468 11.8732 4.35556 12.0018L4.16793 12.1947C4.14113 12.2252 4.15118 12.2759 4.18803 12.2928L4.41586 12.3977C4.45272 12.4147 4.49963 12.3876 4.50298 12.347L4.51973 12.1101C4.64705 12.1778 4.79111 12.2184 4.94188 12.2319L4.84472 12.506C4.82797 12.5466 4.85812 12.5873 4.90168 12.5873H5.14961C5.19317 12.5873 5.22332 12.5466 5.20992 12.506L5.10941 12.2319C5.26018 12.2184 5.40425 12.1778 5.53156 12.1101L5.55167 12.347C5.55502 12.3876 5.59857 12.4147 5.63543 12.3977L5.86326 12.2928C5.90346 12.2759 5.91351 12.2252 5.88336 12.1947L5.69909 12.0018C5.86661 11.8732 5.99728 11.6939 6.06764 11.4874C6.08439 11.4367 6.02743 11.3995 5.98723 11.4333Z" fill="#D3CBF3"/>
<path id="Vector_3" d="M27.4066 15.2539C27.3865 14.9358 27.3698 14.8411 27.3564 14.7836C27.343 14.7294 27.3195 14.6719 27.286 14.6143C27.3028 14.5297 27.3128 14.4451 27.3128 14.3538L27.1956 12.8749L27.0883 12.3538L27.1152 11.1931L27.085 10.6076H26.9476L26.9711 10.5738C27.0481 10.4621 27.0883 10.3335 27.0883 10.1846L27.0582 8.5332L27.0314 8.45537L27.1219 8.07635L27.1453 7.72103C27.1453 7.5789 27.0649 7.35555 26.7902 7.28787L26.8304 6.82425L26.3881 6.70919L26.3043 6.69904C26.1603 6.69904 26.0464 6.76672 25.7716 7.01376L25.3662 7.36232L25.1015 7.75148L24.8469 8.04251L24.9139 8.17787C24.9139 8.17787 24.8938 8.21171 24.8771 8.2354L24.7363 8.43506L24.8804 8.63134C24.8804 8.63134 24.8905 8.64487 24.8938 8.64826C24.733 8.77008 24.6727 8.99343 24.6358 9.19986L24.6057 9.36568L24.542 9.38598L24.4482 9.765L24.1064 10.5569L24.026 11.0171L23.8116 11.3555L23.1583 12.9189L22.3642 14.3605L22.0225 14.7599L21.9421 14.594L21.7712 14.3876L21.5802 13.9071L21.4462 13.7819L21.3792 13.5179L21.0642 13.1761L20.8398 12.8648L20.7828 12.8546L20.8029 12.77L20.813 12.6888C20.813 12.5839 20.7895 12.4553 20.5081 11.9071L20.3707 11.7074L20.3941 11.6702L20.3439 11.5213C20.3003 11.3893 20.2501 11.3014 20.1898 11.2371C20.1529 11.1998 20.1094 11.1694 20.0658 11.1491L20.1462 11.078L19.8112 10.0932L19.5766 9.55857C19.4761 9.37583 19.3555 9.26754 19.2382 9.20324L19.3053 9.09495L19.0506 8.27263L18.9133 8.20495L19.0339 7.90038L18.9501 7.75825C18.8697 7.62289 18.8094 7.52137 18.7658 7.44692C18.7357 7.39954 18.7156 7.35893 18.7022 7.32509C18.6921 7.29802 18.6854 7.26418 18.6787 7.22695L18.6519 7.05437L18.4978 6.97653C18.4978 6.97653 18.481 6.96638 18.4743 6.963C18.4743 6.95623 18.4743 6.94946 18.4743 6.93931L18.4609 6.68889L18.0723 6.59414L17.9919 6.58398C17.8646 6.58398 17.7406 6.63136 17.6066 6.73288L17.3285 6.94946L17.104 7.0476L17.0705 7.12205L16.9968 7.15927C16.6349 7.33524 16.5612 7.56536 16.5612 7.72779V7.80224L16.6819 8.07297L16.6684 8.36061L16.7355 8.79377H16.6316L16.7656 9.56534L16.6819 9.57211L16.7489 10.4046L16.7355 10.5535L16.7757 11.3217L16.7355 12.1947V12.2387C16.7355 12.347 16.7556 12.4553 16.8025 12.5704C16.7589 12.6584 16.7355 12.7463 16.7355 12.8377L16.7489 13.0137L16.8293 13.1829L16.8159 13.2912L16.6684 13.4029L16.6953 13.7311L16.6684 13.9545L16.6986 14.5568L16.5914 15.3825V16.0526L16.444 16.4214L16.5445 16.9629L16.9901 17.0272L17.2246 16.9764L17.5195 16.7294L18.0421 16.3673L18.0756 16.3402C18.2264 16.2082 18.2432 15.995 18.2432 15.8225L18.2164 15.3419L18.2834 15.3352V14.8918C18.2834 14.7497 18.2599 14.611 18.2097 14.4722L18.27 14.3064L18.2264 12.7328L18.2633 12.4553L18.28 11.9342L18.3202 11.6736L18.1929 11.4063C18.2331 11.3386 18.2599 11.2607 18.2733 11.1626C18.28 11.1051 18.2867 11.0272 18.2934 10.9393L18.3102 10.6956C18.3504 10.7768 18.4073 10.8784 18.4844 11.0137L18.6017 11.2303H18.5749L19.905 14.0052L20.106 14.1812C20.0993 14.2184 20.0826 14.259 20.0591 14.3064L19.9653 14.4824L20.2233 14.8783L20.3606 15.281L20.5215 15.528L20.6689 15.951L21.0173 16.5839L21.081 16.5162C21.091 16.55 21.1011 16.5805 21.1111 16.6076C21.1413 16.6752 21.1949 16.7632 21.3725 16.9663L21.5031 17.1185L21.6975 17.0746C21.8516 17.0407 21.9689 17.0001 22.0593 16.9527C22.1732 16.8918 22.2704 16.8004 22.3408 16.6854C22.3944 16.6008 22.4513 16.4688 22.5183 16.2759C22.5284 16.2488 22.5351 16.2319 22.5418 16.2184C22.5451 16.2184 22.5485 16.2184 22.5518 16.2184L22.783 16.1812L22.8266 15.951L22.8467 15.8157C22.8467 15.7751 22.8433 15.7243 22.8199 15.6296L23.1616 15.3013L23.3358 15.0441L23.7714 14.2083L24.3912 13.1118L24.6224 12.5771C24.6425 12.5399 24.6961 12.4587 24.8502 12.3301L24.9441 12.2523L24.9876 12.0154L25.1585 11.6262L25.2121 11.3589L25.2691 11.2709L25.3461 11.0848L25.4969 10.9359L25.5136 10.7362L25.5505 10.6787L25.5672 10.7599V11.1186L25.594 11.1288L25.6979 12.0492L25.6711 12.3166L25.6979 12.787L25.6845 13.5247L25.7281 13.8123L25.7683 14.6448L25.8319 15.0103L25.7113 15.8495L25.7247 16.1439L25.6711 16.5365L25.6309 17.0373L25.9458 17.0779L26.1 17.0949C26.2407 17.0949 26.3814 17.0339 26.5288 16.9155C26.7567 16.9392 26.9644 16.7565 27.1118 16.5906C27.3162 16.347 27.42 16.1033 27.42 15.8664L27.3932 15.2742L27.4066 15.2539Z" fill="#D3CBF3"/>
<path id="Vector_4" d="M35.1228 13.6533C35.0223 13.5619 35.0088 13.5179 35.0088 13.5179C35.0088 13.5077 35.0156 13.4908 35.0156 13.4908L35.1395 13.1727L35.1094 12.6651V12.479C35.1094 12.3842 35.0826 12.2759 35.0256 12.144C34.9921 12.0661 34.9452 11.9545 34.8882 11.8089L34.9552 11.5551L34.9653 11.3352L35.029 11.1186L34.9988 10.5839L35.0357 10.364V10.2726C35.039 10.0255 34.8447 9.85973 34.6973 9.75482L34.5699 9.66345L34.2784 9.74129L33.7859 9.80897L33.5481 10.0391L33.0957 10.1914V10.5501C33.0957 10.6482 33.1125 10.726 33.1426 10.7903L33.3135 11.1524L33.3638 11.9477L33.471 12.5331L33.4274 12.6786L33.4576 12.9426L33.3906 13.0577L33.4475 13.4198L33.347 13.5416L33.0589 14.3064L32.7372 14.5094L32.2414 14.9933L31.5378 15.5043L30.9247 15.7141L30.7906 15.7954L30.67 15.6532L30.3082 15.5077L30.1674 15.2674L30.0837 15.1524L30.3618 13.0746C30.402 13.0272 30.4388 12.9629 30.4623 12.8817L30.5159 12.3436L30.6868 11.5348L30.7772 11.034L31.0017 10.4655V10.3572C31.0017 10.1947 30.9582 10.0526 30.8744 9.93418C30.7705 9.79205 30.6164 9.71083 30.4388 9.71083H30.3082L29.5778 10.1406L29.1154 10.2929L28.7033 10.7903L28.7904 11.3081L29.0182 11.3419L28.9177 11.7616L28.8943 12.3572C28.8775 12.4587 28.8574 12.5602 28.834 12.6617L28.7 13.1964C28.6463 13.4637 28.6363 13.5585 28.6363 13.6126V13.704L28.6765 13.9206L28.4487 14.462L28.3783 14.7531L28.4018 15.105L28.4688 15.1998L28.4252 15.2302L28.3951 15.5686C28.3951 15.9476 28.519 16.2657 28.7502 16.506C28.8976 16.6684 29.1389 16.8173 29.4907 16.9561C29.8324 17.0915 30.1071 17.1558 30.3283 17.1558C30.412 17.1558 30.5125 17.1388 30.6466 17.1016L30.8945 17.0035L31.3133 16.9324L31.3703 16.9155C31.4808 16.8749 31.6115 16.8004 31.7958 16.6684L32.3184 16.2691L32.6635 15.9307L33.2968 15.5145L33.3939 15.4231L33.4777 16.4925L33.5481 16.7937L33.4676 17.0779C33.3671 17.3114 33.3169 17.5517 33.3169 17.7818L33.3035 18.3334L33.1728 18.929L33.2063 19.1726L33.0153 19.4738L32.8076 20.1405C32.7372 20.3706 32.6669 20.462 32.6334 20.4924L32.3285 20.6853L31.7321 21.3046C31.7321 21.3046 31.645 21.3892 31.2664 21.5821C30.8844 21.7581 30.6901 21.7953 30.5997 21.7987L30.3283 21.7615L30.2278 21.8393L30.1842 21.8054L29.6548 21.7648L29.0417 21.5076L28.9512 21.5212C28.9512 21.5212 28.9412 21.5144 28.9378 21.5076L28.6798 21.0914L28.4386 20.7462L28.2041 20.1337L27.9528 20.1608C27.7183 20.1845 27.5574 20.2589 27.4502 20.3943C27.2727 20.6346 27.1855 20.8917 27.1855 21.1659C27.1855 21.4569 27.2693 21.6769 27.4335 21.8224L27.7819 22.0457L27.9997 22.357L28.3012 22.4315L28.7368 22.7158C28.8943 22.8071 29.0819 22.8613 29.2829 22.8782L30.345 23L31.052 22.7868L31.511 22.6108C31.7355 22.5026 31.8695 22.4416 31.9197 22.418L32.2749 22.3164L32.4357 22.1709L32.6233 22.0525L32.8311 21.8461L32.9416 21.7784C33.1225 21.6938 33.2834 21.5313 33.4308 21.2945L33.7256 20.8376L34.2114 20.1946L34.4594 20.0356L34.8145 19.0982L34.8011 18.7463L34.8748 18.5872L34.9619 18.1947L35.0792 17.9104L35.0658 17.1524L35.1362 16.9696L35.106 16.3808L35.1764 15.8833L35.0122 15.6803L35.2266 15.0644L35.2099 14.1033L35.2367 13.7615L35.1194 13.6499L35.1228 13.6533Z" fill="#D3CBF3"/>
<path id="Vector_5" d="M49.2851 15.5179L49.1846 15.3994L48.9702 15.0306L48.7826 14.8174V14.5839L48.605 14.4891C48.5682 14.4688 48.5447 14.4553 48.5313 14.4451L48.5011 14.3402L48.3169 14.0492L48.1259 13.951L48.1326 13.8732C48.1527 13.8292 48.1627 13.7785 48.1627 13.7277C48.1627 13.5923 48.1158 13.4096 47.9048 13.2539C47.9014 13.2133 47.8914 13.1829 47.8847 13.1524C47.8646 13.0949 47.831 13.017 47.7205 12.8411C47.7037 12.8106 47.6769 12.7599 47.6401 12.6956C47.6066 12.6313 47.5798 12.5873 47.563 12.5568C47.5429 12.5162 47.5161 12.4722 47.4927 12.435L47.1811 11.8935L47.1174 11.8123C47.1141 11.6499 47.0336 11.4942 46.8494 11.3081V11.193L46.4205 10.3504L46.196 10.1609L46.1793 10.1338L46.2329 10.0052L46.2061 9.90033L45.8744 9.26074L45.7739 9.13892V9.12538C45.7739 9.03063 45.7504 8.94941 45.7102 8.87835L45.7873 8.85127L45.4388 8.19815L45.3082 7.83267L45.0334 7.30138L44.829 7.0205L44.8022 6.96974L44.943 6.56704H44.6381L44.551 6.25232L44.2762 6.27601C44.0249 6.2997 43.8105 6.41475 43.6564 6.61103L43.5559 6.81407L43.1806 7.07126C43.0265 7.16263 42.936 7.32168 42.936 7.50442C42.936 7.55856 42.9461 7.61609 42.9695 7.69393C42.8288 7.74807 42.7216 7.84621 42.658 7.9748C42.6178 8.05602 42.5842 8.16769 42.5507 8.3369L42.4904 8.62116L42.5139 8.68546C42.3966 8.83435 42.3162 8.96972 42.2693 9.09493L41.6964 10.6347C41.6327 10.699 41.5959 10.7497 41.5724 10.8005L41.4585 11.1423L41.291 11.4299L41.3613 11.545C41.3412 11.5619 41.3178 11.5822 41.2843 11.6059L40.9794 11.8428L41.1268 11.9951L41.0062 12.1135L40.6745 12.6719L40.44 13.1355L40.259 13.5483L40.1049 13.7683L39.7967 14.4519L39.5353 14.7734V14.9967L39.2539 15.0373V15.2776L38.9624 15.748L38.7815 15.9815L38.3359 16.7767L38.5838 16.9493C38.7882 17.0948 38.9926 17.1693 39.1969 17.1693C39.3142 17.1693 39.4047 17.1625 39.4817 17.149L39.7933 17.0948L39.7732 16.9256C39.9072 16.8512 39.991 16.7564 40.0279 16.6448L40.3931 15.7987L40.5271 15.5957L40.5405 15.4434C40.718 15.1659 40.8688 14.8715 40.9894 14.5636L41.0564 14.5365L41.2407 14.1236C41.3077 13.9646 41.3546 13.88 41.3814 13.8428L41.5791 13.8326L41.8203 13.7785L42.3966 13.8191H42.4402C42.5608 13.8191 42.6714 13.792 42.7618 13.7378C42.7953 13.7209 42.8255 13.6972 42.859 13.6702L43.1639 13.7785L43.5224 13.6769L44.0785 13.704L45.0468 13.572L45.2177 13.5991L45.4656 13.5856L46.1424 13.7142H46.2329C46.2965 13.7175 46.4038 13.704 46.511 13.6363C46.5646 13.7615 46.6349 13.8969 46.7254 14.0492C46.7589 14.1101 46.8058 14.1642 46.8561 14.2116C46.8594 14.3537 46.8929 14.4857 46.9599 14.6211L47.2816 15.1964L47.3117 15.3859L47.5764 15.9476L47.7037 16.3097H47.7942C47.8076 16.3436 47.821 16.3774 47.8378 16.4146L47.8445 16.4552L47.8244 16.6549L47.9215 16.8681L47.9684 17.308L48.4341 17.2133H48.806L49.1612 16.682L49.4493 16.4282L49.4795 16.3673C49.5197 16.2793 49.5398 16.2048 49.5398 16.1338C49.5398 16.0525 49.5197 15.9646 49.4694 15.836C49.4259 15.7277 49.3656 15.6228 49.2851 15.5179ZM45.4455 12.3707L45.4623 12.3301L44.7084 12.4485C44.5409 12.4688 44.4169 12.4857 44.3365 12.4925C44.226 12.5027 44.1657 12.5094 44.1154 12.5264L43.978 12.4688L43.3515 12.5128L42.4569 12.4587L42.3263 12.4722L42.1855 12.2489C42.2492 12.1778 42.3028 12.1034 42.343 12.0255C42.4134 11.8834 42.4603 11.6871 42.4837 11.4333C42.5072 11.4198 42.5273 11.4029 42.5474 11.3859C42.6144 11.3216 42.6647 11.2404 42.725 11.0814L42.7551 11.0001C42.7786 10.9731 42.7987 10.9494 42.8154 10.9189C42.8523 10.8682 42.8757 10.8276 42.8925 10.7971C42.9025 10.7768 42.9226 10.7328 42.9494 10.6651C42.9796 10.6008 43.0131 10.5196 43.0399 10.4452L43.3515 9.74128L43.4051 9.47394C43.4085 9.45025 43.4319 9.40626 43.5056 9.34196C43.6162 9.23029 43.6899 9.14569 43.7335 9.06785C43.7569 9.02725 43.7871 8.96295 43.834 8.80728L43.8876 8.79374V8.78359L44.3633 9.75143L44.6146 9.88341L44.561 10.0391L45.1373 11.2066H45.2311L45.536 11.8326L45.7236 11.8834C45.7471 12.0797 45.7772 12.2252 45.8208 12.3369L45.4455 12.3707Z" fill="#D3CBF3"/>
<path id="Vector_6" d="M51.6539 14.0864V13.5077H51.4428C51.4562 13.413 51.4629 13.3182 51.4629 13.2201C51.4629 13.1592 51.4629 13.0983 51.4562 13.0374L51.6171 12.8512L51.5568 10.2861L51.3691 10.0797L51.4763 9.81912L51.3758 9.2912L51.5467 8.94603V7.90712L51.607 6.44521L51.483 6.23878L51.4931 6.11696C51.6338 5.97483 51.6573 5.81239 51.6573 5.71764V5.56197C51.6573 5.41308 51.6405 5.24387 51.5232 5.12205C51.5232 5.12205 51.5233 5.12205 51.5199 5.11866L51.597 4.94946C51.6372 4.86147 51.6573 4.75657 51.6573 4.59752L51.6439 4.35048L51.6874 3.79888V3.62968L51.6707 3.47063L51.6171 3.25066L51.6003 2.89195L51.3289 2.45203L50.9068 2.55355L50.5885 2.80397L49.8447 3.22021L49.7844 3.6466L49.7207 3.92071L49.8547 4.91562L49.8246 5.17619L49.9351 5.64657L49.8313 5.97144L49.8581 6.42491V6.85468L49.982 6.96297C49.9753 7.0002 49.972 7.02389 49.972 7.03742L50.0993 7.06449L50.1194 7.08141L50.1295 7.07126L50.2869 7.1051H49.9619V7.4232L50.106 7.43336C49.9854 7.67701 49.9318 7.84959 49.9318 7.99849L49.9586 9.2709V9.76835L50.0826 9.86988C50.0826 9.86988 50.0993 9.88341 50.106 9.89018L49.9954 10.3436L49.9854 11.6093L49.8782 12.0695L49.8681 12.5771H49.8782L49.848 12.7125L50.0625 12.8005C49.9284 13.0407 49.8681 13.2032 49.8681 13.3385C49.8681 13.4333 49.8983 13.5145 50.0155 13.7345L50.039 13.7988C49.972 13.9714 49.9284 14.171 49.915 14.3977L49.8815 15.3554L49.781 16.1744L49.8246 16.5162V16.6718C49.8246 16.8749 49.972 17.0948 50.2903 17.0948L50.4846 17.0813L50.7225 16.9324L50.9034 16.9053L51.3624 16.6109L51.798 16.5297L51.7142 16.1811C51.7611 16.0965 51.7846 16.0018 51.7846 15.8969L51.7712 15.6262L51.798 15.237L51.6506 14.0864H51.6539Z" fill="#D3CBF3"/>
<path id="Vector_7" d="M58.5926 14.8952C58.3614 15.1457 58.2308 15.2573 58.1604 15.3047C58.0833 15.3589 58.0096 15.3927 57.9393 15.4029L57.8589 15.4164L57.4635 15.7006L57.3563 15.66L57.2223 15.7345C57.0514 15.8292 56.9576 15.8699 56.9174 15.8868L56.0932 15.7988L55.8385 15.7886L55.5102 15.6736L55.3494 15.5314L54.9406 15.2303L54.7899 15.0103H54.6692L54.4783 14.7362C54.3241 14.5128 54.2571 14.4418 54.2035 14.4012C54.2035 14.4012 54.1801 14.3876 54.1667 14.3809L54.2437 14.1541L54.1801 14.0289C54.1231 13.9173 54.0863 13.809 54.0662 13.7007C54.0427 13.5822 54.0293 13.4299 54.026 13.2371L54.0126 12.8276L54.0293 12.6618L54.2672 12.1812L54.4247 12.1542L54.5687 11.8327L54.8334 11.7379L54.8937 11.6465C55.0076 11.4807 55.088 11.43 55.1216 11.4164H55.2656L55.929 11.2912C55.9625 11.2845 56.0094 11.2845 56.0865 11.298L57.1921 11.4773L57.4267 11.4503L57.5674 11.4706H57.7248L58.023 11.3217L58.4452 11.0543L58.4586 10.919C58.5491 10.8682 58.6127 10.8141 58.6663 10.7565C58.7501 10.6618 58.8104 10.523 58.8606 10.3098L58.9277 10.0357L58.6764 9.92068C58.5759 9.8733 58.4854 9.83946 58.3983 9.81578L58.3313 9.79547L57.7517 9.88346L57.0682 9.76501L56.7599 9.853L56.5455 9.75825C56.522 9.74471 56.4986 9.73456 56.4718 9.72441L56.3947 9.7041H56.3411L55.0813 10.0865L54.7966 10.3098L54.7262 10.3335L54.1667 10.7295L53.4597 11.4266L53.0208 11.809L52.7059 12.479L52.4144 12.9934L52.4512 13.6973L52.3306 14.1846L52.5384 14.4181L52.5049 14.5467L52.5618 15.1084L52.7025 15.2946L52.8633 15.5822L53.1213 15.9037H53.1682L53.5401 16.2962L53.8986 16.6143L54.5989 16.7802L55.0545 16.9088L55.4063 16.9595L55.537 17.0746L56.2205 17.1287L56.8738 17.078L57.2658 16.8445C57.3932 16.7835 57.4434 16.7768 57.4334 16.7768L57.9929 16.7903L58.3413 16.6076L58.472 16.5737L58.7434 16.3842L58.9679 16.3199L59.3297 15.8563L59.4369 15.704L59.3967 15.5822L59.4537 15.3284C59.4704 15.2743 59.4805 15.2167 59.4805 15.1558C59.4805 15.0272 59.4336 14.902 59.3431 14.814C59.1387 14.6008 58.7836 14.6414 58.5893 14.8919L58.5926 14.8952Z" fill="#D3CBF3"/>
<path id="Vector_8" d="M66.3322 10.4993L66.0675 10.3335L65.6152 9.87329L64.7072 9.80899L64.2315 9.74469L64.0539 9.92743C63.9266 9.7853 63.7725 9.74808 63.6887 9.73793H63.6485L63.2598 9.7853L62.9918 9.84283L62.6367 9.98158L62.4725 9.89698L61.7521 10.4553L61.8024 9.75485L61.7622 9.58226L61.789 9.32169L61.7287 9.05096L61.7689 8.92575L61.8058 8.69902L61.7086 8.10004L61.7957 7.93761V7.80901C61.7957 7.6635 61.732 7.51122 61.5813 7.31494L61.7421 6.97992L61.7253 6.50615L61.7957 5.16607V4.64492L61.7287 4.65507C61.7622 4.57386 61.7823 4.47572 61.7823 4.35389L61.7957 3.46727L61.856 2.91905L61.846 2.86829C61.8292 2.77692 61.7387 2.47913 61.2831 2.47913C61.1256 2.47913 60.9346 2.54342 60.6599 2.68894L60.0836 2.9935C59.9161 3.10179 59.8055 3.24392 59.762 3.40974L59.705 3.62294L59.9161 3.79552L60.0736 4.48249L60.0602 5.8158C60.0602 5.92071 60.097 6.01546 60.2109 6.18805L60.1607 6.33356L60.0903 6.88855L60.2243 7.07129L60.1372 7.30817L60.1975 8.19141V8.73963L60.2042 8.81408C60.2243 8.90206 60.2679 8.97651 60.3181 9.03404L60.2411 9.5315V11.2201C60.2377 11.3758 60.2511 11.4909 60.2846 11.5822C60.3114 11.6567 60.355 11.7311 60.4187 11.809L60.2344 12.144L60.2645 12.8648L60.1808 14.99C60.1808 15.105 60.221 15.2235 60.3114 15.369L60.154 15.6363V15.9781L60.0836 16.2556L60.0501 16.7903L60.164 16.8715L60.3048 17.2032L60.5761 17.1389C60.7202 17.105 60.8743 17.0103 61.072 16.8309L61.1122 16.7971C61.1792 16.7937 61.2261 16.7835 61.2697 16.77L61.3836 16.7125L61.6148 16.7598L61.8661 16.259L61.8393 15.5991L61.8996 15.4705L61.7823 14.144V14.1372L61.856 14.1609L61.7555 13.589L61.8393 12.4925L61.7655 12.1575L62.0135 11.8597L62.124 11.7548L62.3586 11.6635L62.7472 11.4333C62.8343 11.3927 62.9315 11.3589 63.0387 11.3352L63.8395 11.3081L64.2717 11.3657L64.4593 11.3555L64.7508 11.5247L64.9987 11.6161L65.1126 11.8733L65.059 12.0865L65.1193 12.6617V12.7024C65.1193 12.8039 65.1059 12.902 65.0825 12.9798C65.0121 13.1964 64.9753 13.3792 64.9753 13.5348C64.9753 13.6905 65.0356 13.8225 65.1428 13.9308C65.1394 14.056 65.1294 14.1575 65.116 14.2286L64.9384 14.9392L65.0389 15.5111L64.8111 16.2116L64.7173 16.6346L65.3338 17.1795L66.024 16.7734L66.1379 16.7632C66.5634 16.7294 66.7142 16.4519 66.7142 16.2049L66.7276 15.5585L66.6404 15.0103L66.6304 14.9426L66.7376 14.8174V13.3724L66.6304 13.2607L66.7678 13.0475L66.6673 12.8039C66.7108 12.743 66.741 12.6854 66.7577 12.6347C66.7812 12.5636 66.8013 12.4587 66.808 12.188L66.8214 11.7074C66.8214 11.3724 66.7309 11.0915 66.5533 10.8682L66.3255 10.5027L66.3322 10.4993Z" fill="#D3CBF3"/>
<path id="Vector_9" d="M74.3062 14.4925C74.1722 14.4925 73.9812 14.5365 73.8104 14.7497L73.482 15.1896L72.8689 15.5754L71.6158 15.7886L71.2138 15.8698L70.7112 15.6803L70.5973 15.6566L70.5001 15.4739L70.3293 15.4502C70.2823 15.4434 70.2488 15.4367 70.2187 15.4333L70.1014 15.1693L69.6625 14.9832C69.6525 14.9629 69.6357 14.9257 69.6156 14.8546L69.4983 14.5196L69.371 14.4756L69.2571 14.2489L69.0829 13.5382C69.0594 13.4705 69.0226 13.4096 68.9355 13.3318C68.9422 13.3216 68.9489 13.3115 68.9556 13.2979C68.9958 13.2235 69.0226 13.122 69.036 13.0035L69.4112 12.8885L69.7228 12.902L70.6542 12.7734L71.0261 12.7869L71.78 12.7734L72.2692 12.858L72.7382 12.8309L73.2575 12.8919L73.5021 12.8242L73.7367 12.8682L74.0281 12.77L74.3096 12.8276L74.7585 12.6448L74.4738 11.748C74.4403 11.6431 74.3967 11.545 74.3498 11.4536C74.3096 11.3724 74.2694 11.298 74.2258 11.2235C74.1789 11.1423 74.1153 11.0475 74.0315 10.9393L73.4251 10.3234L73.1269 10.1406L72.6444 9.74807L72.564 9.89697C72.3496 9.72438 72.1284 9.677 71.9375 9.677H71.9308L71.7867 9.69392L71.4383 9.8259L70.996 9.87666L70.3226 10.0932L70.0679 10.144L69.1901 10.7667L68.8182 10.9799L68.4396 11.4909L68.0912 11.8394L67.9504 12.1677L67.736 12.4485C67.6589 12.5365 67.5852 12.6787 67.4713 13.0949C67.411 13.3081 67.3809 13.4807 67.3809 13.6363L67.3976 13.9849L67.4479 14.4654L67.6455 14.7903C67.6388 14.8174 67.6254 14.8546 67.602 14.902L67.4881 15.1355L67.793 15.4028L68.1615 15.907L68.6306 16.2455L68.8919 16.4993L69.5922 16.7564C69.6223 16.7768 69.6659 16.814 69.7262 16.8614L69.8166 16.9358H70.1148L70.8553 16.9764L71.4818 16.9223L71.9676 16.9696L72.2055 16.8817L73.4016 16.638C73.5691 16.6143 73.6998 16.5602 73.7936 16.4722L73.8841 16.391L74.2526 16.3673L74.8122 15.3656C74.8591 15.2708 74.8792 15.1659 74.8792 15.0509C74.8792 14.7192 74.648 14.4925 74.3062 14.4925ZM70.0378 11.4672L70.5839 11.2574L70.9424 11.1694L71.2808 10.99L71.3076 10.9832L71.8805 11.0272L71.9475 11.1017L72.4233 11.4638C72.4233 11.4638 72.44 11.4909 72.4501 11.501L71.9073 11.6161L71.7733 11.4164L71.0127 11.5788L70.4298 11.4502L70.212 11.5213H70.1751L70.0076 11.5112L70.0378 11.4672Z" fill="#D3CBF3"/>
<path id="Vector_10" d="M84.2906 15.7919V15.3452L84.237 15.0204C84.2504 14.9933 84.2638 14.9662 84.2739 14.9391L84.2973 14.8681L84.2605 14.5534L84.2504 14.506L84.2638 14.0796L84.16 13.1151C84.16 13.1151 84.1667 13.105 84.1667 13.0982L84.304 12.885V12.6312L84.3476 11.7344L84.3308 11.5889L84.2605 11.3757L84.237 11.0373L84.1231 10.4011L84.0762 10.4248C83.9991 10.1439 83.7847 9.94767 83.4631 9.86983L83.2051 9.80553L82.9069 9.68033L82.6053 9.71755H82.2133L81.9018 9.80215L81.6371 9.78861L81.3891 9.84276L80.9435 10.1067L80.6252 10.2759L80.5884 10.3165C80.5348 10.1676 80.4611 10.0424 80.3706 9.9409C80.1629 9.71078 79.8848 9.61941 79.5464 9.68371L79.4894 9.69386C79.3755 9.68371 79.2649 9.71755 79.1075 9.81569C79.1041 9.8123 79.1008 9.80553 79.0941 9.80215L78.9433 9.63633L77.6467 10.1067L77.3619 10.3436L77.1743 10.4113C77.1642 10.2759 77.1341 10.1609 77.0838 10.0695C77.0302 9.97474 76.9364 9.86645 76.7856 9.7277L76.6315 9.58557L76.4372 9.6634C76.1122 9.79538 75.8743 9.92059 75.7101 10.0458C75.5325 10.1812 75.3885 10.3504 75.2813 10.55L75.1606 10.7801L75.4923 11.0915L75.5426 11.3182L75.5962 11.8326L75.7135 12.1473L75.7336 12.3064L75.6096 12.33V12.7632L75.5962 13.1084C75.5929 13.2031 75.5895 13.325 75.5895 13.4739C75.5895 13.7513 75.6163 13.9138 75.6766 14.0255C75.6934 14.0593 75.7202 14.0999 75.7637 14.1405L75.6498 14.3097L75.5962 14.5161L75.623 14.9967L75.6867 15.0508L75.5727 15.264L75.6264 15.6396L75.613 16.9425L75.8408 17.0203C75.9614 17.061 76.0653 17.0813 76.1624 17.0813C76.2964 17.0813 76.4137 17.0508 76.5075 16.9933L76.9565 16.7598C77.0536 16.7056 77.1274 16.6447 77.1877 16.577C77.2346 16.5229 77.2915 16.4451 77.315 16.3537L77.3284 16.3029L77.2279 15.0001L77.2446 14.171L77.181 14.0694L77.2245 14.0525L77.258 13.6498L77.2312 12.6583V12.5432C77.2312 12.374 77.2446 12.2319 77.2714 12.1202C77.2915 12.0424 77.3451 11.8901 77.4859 11.6059L77.5127 11.5517L77.7405 11.5179L78.1224 11.369L78.5077 11.3216L78.5547 11.2844L78.6853 11.484L78.9366 11.3859C79.0103 11.3554 79.0438 11.352 79.0505 11.352C79.0505 11.352 79.1544 11.4434 79.1544 11.9104L79.141 12.6075L79.3052 12.9493L79.1845 13.105L79.1678 13.7818L79.1276 14.0796L79.2616 14.3232L79.2783 14.4417L79.3521 14.6278C79.3119 14.6684 79.2817 14.709 79.2582 14.7496C79.2013 14.8478 79.1745 14.9696 79.1778 15.1422L79.2046 15.7547L79.151 16.4857V16.7327L79.275 16.8342C79.4191 16.9527 79.5229 17.017 79.6502 17.017H79.7273L80.317 16.7564L80.6286 16.533L80.709 16.4857L80.7794 16.4281C80.8665 16.3401 80.91 16.242 80.91 16.1337C80.91 15.995 80.8933 15.8021 80.8598 15.5517C80.8263 15.3012 80.7894 15.1151 80.7592 15.0136L80.7425 14.9324L80.7928 14.6346L80.6654 14.3774L80.8263 14.2928L80.7592 12.2725L80.7224 12.2488L80.7794 12.2082V11.5889C80.8095 11.5585 80.8899 11.4908 81.0675 11.396C81.2551 11.3081 81.4159 11.2505 81.5433 11.2201C81.6739 11.193 81.8414 11.1795 82.0425 11.1795C82.1296 11.1795 82.1731 11.1862 82.1932 11.1896L82.5015 11.3893L82.6254 12.1033L82.7561 12.3064L82.6456 12.6515C82.6154 12.7294 82.612 12.814 82.612 12.8952L82.6388 13.6363L82.6824 13.9679L82.7461 14.0153L82.6388 14.2826L82.6254 14.682L82.5584 15.0982L82.6322 15.7784L82.5484 16.0457L82.5048 16.3198L82.5551 16.973L82.8097 17.0203C82.9404 17.044 83.0141 17.0542 83.0711 17.0542C83.1448 17.0542 83.2118 17.044 83.2754 17.0203L83.721 16.709L84.4749 16.2928L84.3107 15.7716L84.2906 15.7919Z" fill="#D3CBF3"/>
<path id="Vector_11" d="M91.9732 14.1067L92 13.7649L91.8828 13.6533C91.7823 13.5619 91.7689 13.5179 91.7689 13.5179C91.7689 13.5077 91.7756 13.4908 91.7756 13.4908L91.8995 13.1727L91.8694 12.6651V12.479C91.8694 12.3842 91.8426 12.2759 91.7856 12.144C91.7521 12.0661 91.7052 11.9545 91.6482 11.8089L91.7152 11.5551L91.7253 11.3352L91.789 11.1186L91.7588 10.5839L91.7957 10.364V10.2726C91.799 10.0255 91.6047 9.85973 91.4573 9.75482L91.3299 9.66345L91.0385 9.74129L90.5459 9.80897L90.3081 10.0391L89.8558 10.1914V10.5501C89.8558 10.6482 89.8725 10.726 89.9027 10.7903L90.0735 11.1524L90.1238 11.9477L90.231 12.5331L90.1874 12.6786L90.2176 12.9426L90.1506 13.0577L90.2075 13.4198L90.107 13.5416L89.8189 14.3064L89.4973 14.5094L89.0014 14.9933L88.2978 15.5043L87.6847 15.7141L87.5506 15.7954L87.43 15.6532L87.0682 15.5077L86.9275 15.2674L86.8437 15.1524L87.1218 13.0746C87.162 13.0272 87.1988 12.9629 87.2223 12.8817L87.2759 12.3436L87.4468 11.5348L87.5372 11.034L87.7617 10.4655V10.3572C87.7617 10.1947 87.7182 10.0526 87.6344 9.93418C87.5305 9.79205 87.3764 9.71083 87.1988 9.71083H87.0682L86.3378 10.1406L85.8754 10.2929L85.4633 10.7903L85.5504 11.3081L85.7782 11.3419L85.6777 11.7616L85.6543 12.3572C85.6375 12.4587 85.6174 12.5602 85.594 12.6617L85.46 13.1964C85.4064 13.4637 85.3963 13.5585 85.3963 13.6126V13.704L85.4365 13.9206L85.2087 14.462L85.1383 14.7531L85.1618 15.105L85.2288 15.1998L85.1852 15.2302L85.1551 15.5686C85.1551 15.9476 85.279 16.2657 85.5102 16.506C85.6576 16.6684 85.8989 16.8173 86.2507 16.9561C86.5924 17.0915 86.8671 17.1558 87.0883 17.1558C87.172 17.1558 87.2726 17.1388 87.4066 17.1016L87.6545 17.0035L88.0733 16.9324L88.1303 16.9155C88.2408 16.8749 88.3715 16.8004 88.5558 16.6684L89.0784 16.2691L89.4235 15.9307L90.0568 15.5145L90.1539 15.4231L90.2377 16.4925L90.3081 16.7937L90.2276 17.0779C90.1271 17.3114 90.0769 17.5517 90.0769 17.7818L90.0635 18.3334L89.9328 18.929L89.9663 19.1726L89.7753 19.4738L89.5676 20.1405C89.4972 20.3706 89.4269 20.462 89.3934 20.4924L89.0885 20.6853L88.4921 21.3046C88.4921 21.3046 88.405 21.3892 88.0264 21.5821C87.6445 21.7581 87.4501 21.7953 87.3597 21.7987L87.0883 21.7615L86.9878 21.8393L86.9442 21.8054L86.4148 21.7648L85.8017 21.5076L85.7112 21.5212C85.7112 21.5212 85.7012 21.5144 85.6978 21.5076L85.4399 21.0914L85.1986 20.7462L84.9641 20.1337L84.7128 20.1608C84.4783 20.1845 84.3175 20.2589 84.2102 20.3943C84.0327 20.6346 83.9456 20.8917 83.9456 21.1659C83.9456 21.4569 84.0293 21.6769 84.1935 21.8224L84.5419 22.0457L84.7597 22.357L85.0613 22.4315L85.4968 22.7158C85.6543 22.8071 85.8419 22.8613 86.0429 22.8782L87.105 23L87.812 22.7868L88.271 22.6108C88.4955 22.5026 88.6295 22.4416 88.6797 22.418L89.0349 22.3164L89.1957 22.1709L89.3833 22.0525L89.5911 21.8461L89.7016 21.7784C89.8826 21.6938 90.0434 21.5313 90.1908 21.2945L90.4856 20.8376L90.9714 20.1946L91.2194 20.0356L91.5745 19.0982L91.5611 18.7463L91.6348 18.5872L91.722 18.1947L91.8392 17.9104L91.8258 17.1524L91.8962 16.9696L91.866 16.3808L91.9364 15.8833L91.7722 15.6803L91.9866 15.0644L91.9699 14.1033L91.9732 14.1067Z" fill="#D3CBF3"/>
<path id="Vector_12" d="M13.7502 4.30981C13.2276 4.30981 12.8021 4.73959 12.8021 5.2675C12.8021 5.79541 13.2276 6.22519 13.7502 6.22519C14.2729 6.22519 14.6984 5.79541 14.6984 5.2675C14.6984 4.73959 14.2729 4.30981 13.7502 4.30981Z" fill="#D3CBF3"/>
<path id="Vector_13" d="M14.4538 3.52476C15.2236 3.52476 15.8476 2.89448 15.8476 2.117C15.8476 1.33951 15.2236 0.709229 14.4538 0.709229C13.6841 0.709229 13.0601 1.33951 13.0601 2.117C13.0601 2.89448 13.6841 3.52476 14.4538 3.52476Z" fill="#D3CBF3"/>
<path id="Vector_14" d="M16.769 4.30992C16.769 3.90045 16.4407 3.56543 16.0319 3.56543C15.6231 3.56543 15.2948 3.89707 15.2948 4.30992C15.2948 4.72278 15.6231 5.05441 16.0319 5.05441C16.4407 5.05441 16.769 4.72278 16.769 4.30992Z" fill="#D3CBF3"/>
</g>
</svg>
