<svg width="175" height="73" viewBox="0 0 175 73" fill="none" xmlns="http://www.w3.org/2000/svg">
<g id="Box_Big_Sample" filter="url(#filter0_b_18_564)">
<g id="Vector" filter="url(#filter1_bd_18_564)">
<path d="M12.0325 14.3101L18.8246 9.81688C19.3973 9.43815 20.1071 9.3404 20.7586 9.55155L27.9681 11.8853C28.4108 12.0289 28.8866 12.0311 29.3304 11.892L40.4261 8.41594C41.132 8.19474 41.8997 8.3355 42.485 8.79243L45.8877 11.4519C46.3899 11.844 47.0303 12.006 47.6548 11.8993L69.628 8.12994C69.884 8.08582 70.1462 8.08693 70.4022 8.13274L91.5599 11.916C92.1061 12.0138 92.6684 11.9054 93.1414 11.6122L98.0243 8.58184C98.5573 8.25116 99.2011 8.15731 99.8046 8.32266L112.97 11.93C113.3 12.0205 113.646 12.0345 113.982 11.9702L139.919 7.03958C140.368 6.95412 140.832 7.00774 141.25 7.19375L149.03 10.6464C149.476 10.8441 149.973 10.8916 150.447 10.7821L158.738 8.86393C159.785 8.6215 160.856 9.15495 161.307 10.1431L163.789 15.5759C164.015 16.0697 164.061 16.6283 163.92 17.1528L160.857 28.5435C160.769 28.8731 160.753 29.2188 160.812 29.5551L163.074 42.44C163.15 42.8685 163.103 43.3097 162.942 43.713L159.672 51.8762C159.289 52.8314 158.329 53.4129 157.318 53.3012L148.304 52.303C148.107 52.2812 147.909 52.2857 147.714 52.3158L126.314 55.6333C125.633 55.7389 124.941 55.5255 124.433 55.0529L122.512 53.266C121.859 52.6588 120.918 52.4912 120.1 52.837L113.667 55.5568C113.291 55.716 112.879 55.7696 112.475 55.7115L88.753 52.317C88.5339 52.2857 88.312 52.2868 88.0933 52.3203L58.8931 56.8259C58.3561 56.9085 57.8077 56.794 57.3468 56.5025L51.9121 53.0621C51.1505 52.5801 50.1808 52.5974 49.4368 53.1062L42.8573 57.6057C42.3843 57.9291 41.8083 58.0609 41.2438 57.9738L34.4391 56.9236C33.7755 56.8214 33.1907 56.4265 32.8405 55.8461L32.1637 54.7228C31.6515 53.8721 30.6587 53.452 29.7021 53.6799L19.8004 56.0433C18.9457 56.2472 18.052 55.9344 17.5035 55.2389L13.1642 49.7374C12.6487 49.0833 12.5226 48.1974 12.8349 47.4226L15.5646 40.6542C15.683 40.3604 15.7408 40.0448 15.7331 39.7275L15.4853 28.8708C15.4737 28.3597 15.2947 27.8671 14.9776 27.4699L11.5088 23.1358C11.1801 22.7247 11 22.2114 11 21.6818V16.2429C11 15.4631 11.3882 14.7364 12.032 14.3107L12.0325 14.3101Z" fill="#8F80D7"/>
</g>
<path id="Vector_2" d="M21.5038 16.1768L23.1434 28.6139C23.2108 29.1226 23.6989 29.4552 24.1827 29.3212L36.5932 25.8891C37.1891 25.7242 37.7457 26.2599 37.6231 26.8796L32.9675 50.4234C32.8252 51.1436 33.5799 51.6978 34.1994 51.3276L47.4028 43.4404C47.7405 43.2385 47.8954 42.8228 47.7744 42.442L42.6011 26.1303C42.461 25.6883 42.6925 25.2132 43.1215 25.0624L50.0007 22.6449C50.5814 22.4408 50.7527 21.6836 50.3187 21.2382L42.8643 13.599C42.4314 13.1553 41.6959 13.3281 41.4934 13.9198L39.4127 20.0161C39.2633 20.453 38.8003 20.688 38.3712 20.5439L22.5847 15.2541C22.0024 15.0589 21.4217 15.5548 21.5038 16.1768Z" fill="white" fill-opacity="0.1"/>
<path id="Vector_3" d="M94.3806 30.639L76.4203 50.241C75.8898 50.8198 76.3714 51.7494 77.1457 51.642L97.5706 48.8128C98.2027 48.7254 98.5063 47.9834 98.1198 47.4721L92.5662 40.1348C92.1478 39.5826 92.5388 38.7863 93.2285 38.7863H110.892C111.197 38.7863 111.478 38.6176 111.624 38.347L118.682 25.2384C119.058 24.5395 118.35 23.7543 117.624 24.0653L101.798 30.8465C100.969 31.2017 100.248 30.162 100.865 29.4996L106.943 22.9708C107.234 22.6582 107.244 22.1757 106.968 21.8503L99.8144 13.4379C99.5333 13.107 99.0467 13.0478 98.6958 13.3023L80.8821 26.1984C80.2654 26.645 80.5147 27.6227 81.2692 27.7135L93.8683 29.2357C94.5432 29.317 94.8425 30.1354 94.3812 30.6384L94.3806 30.639Z" fill="white" fill-opacity="0.1"/>
<path id="Vector_4" d="M133.249 51.6428L147.09 49.7358C147.321 49.704 147.528 49.5737 147.661 49.3764L158.809 32.7724C158.985 32.51 159.002 32.168 158.852 31.8883L150.487 16.247C150.228 15.7623 149.592 15.6581 149.197 16.0358L137.832 26.9217C137.355 27.3774 137.559 28.1908 138.191 28.3568L151.784 31.9345C152.435 32.1061 152.624 32.9579 152.11 33.4003L132.608 50.1575C131.974 50.7018 132.429 51.7553 133.249 51.6422V51.6428Z" fill="white" fill-opacity="0.1"/>
</g>
<defs>
<filter id="filter0_b_18_564" x="7" y="3" width="161" height="59" filterUnits="userSpaceOnUse" color-interpolation-filters="sRGB">
<feFlood flood-opacity="0" result="BackgroundImageFix"/>
<feGaussianBlur in="BackgroundImageFix" stdDeviation="2"/>
<feComposite in2="SourceAlpha" operator="in" result="effect1_backgroundBlur_18_564"/>
<feBlend mode="normal" in="SourceGraphic" in2="effect1_backgroundBlur_18_564" result="shape"/>
</filter>
<filter id="filter1_bd_18_564" x="-5" y="-9" width="185" height="83" filterUnits="userSpaceOnUse" color-interpolation-filters="sRGB">
<feFlood flood-opacity="0" result="BackgroundImageFix"/>
<feGaussianBlur in="BackgroundImageFix" stdDeviation="8"/>
<feComposite in2="SourceAlpha" operator="in" result="effect1_backgroundBlur_18_564"/>
<feColorMatrix in="SourceAlpha" type="matrix" values="0 0 0 0 0 0 0 0 0 0 0 0 0 0 0 0 0 0 127 0" result="hardAlpha"/>
<feOffset dy="4"/>
<feGaussianBlur stdDeviation="5.5"/>
<feComposite in2="hardAlpha" operator="out"/>
<feColorMatrix type="matrix" values="0 0 0 0 0 0 0 0 0 0 0 0 0 0 0 0 0 0 0.09 0"/>
<feBlend mode="normal" in2="effect1_backgroundBlur_18_564" result="effect2_dropShadow_18_564"/>
<feBlend mode="normal" in="SourceGraphic" in2="effect2_dropShadow_18_564" result="shape"/>
</filter>
</defs>
</svg>
